<svg xmlns="http://www.w3.org/2000/svg" width="200" height="207" fill="none" viewBox="0 0 200 207"><path fill="#B2D0B0" fill-rule="evenodd" d="M100 207C155.228 207 200 162.228 200 107C200 51.7715 155.228 7 100 7C44.7715 7 0 51.7715 0 107C0 162.228 44.7715 207 100 207ZM100.333 188.333C145.436 188.333 182 151.77 182 106.667C182 61.5634 145.436 25 100.333 25C55.2299 25 18.6665 61.5634 18.6665 106.667C18.6665 151.77 55.2299 188.333 100.333 188.333Z" clip-rule="evenodd"/><path fill="#B2D0B0" d="M103.766 47.7031H108.219V147.078L110.172 149.5L127.438 150.281V157H73.8438V150.125L92.2031 149.188L94.1562 146.453V60.3594L69.0781 64.8125V58.0938L103.766 47.7031Z"/></svg>