<svg width="200" height="213" viewBox="0 0 200 213" fill="none" xmlns="http://www.w3.org/2000/svg">
<path fill-rule="evenodd" clip-rule="evenodd" d="M100 206C155.228 206 200 161.228 200 106C200 50.7715 155.228 6 100 6C44.7715 6 0 50.7715 0 106C0 161.228 44.7715 206 100 206ZM100.333 187.333C145.436 187.333 182 150.77 182 105.667C182 60.5634 145.436 24 100.333 24C55.2299 24 18.6665 60.5634 18.6665 105.667C18.6665 150.77 55.2299 187.333 100.333 187.333Z" fill="#93BB90"/>
<path d="M79.5781 144.344H127.703L130.594 130.75H137.781V157H63.7188V146.922C87.0521 127.964 102.052 114.135 108.719 105.438C115.438 96.7396 118.797 88.276 118.797 80.0469C118.797 72.4948 116.896 66.5833 113.094 62.3125C109.344 58.0417 104.135 55.9062 97.4688 55.9062C94.9688 55.9062 92.5469 56.2188 90.2031 56.8438C87.8594 57.4688 85.5417 58.4323 83.25 59.7344V76.8438C82.1042 77.625 80.9323 78.224 79.7344 78.6406C78.5365 79.0573 77.3125 79.2656 76.0625 79.2656C73.3021 79.2656 71.1146 78.4583 69.5 76.8438C67.8854 75.2292 67.0781 73.0417 67.0781 70.2812C67.0781 64.2917 70.3854 59.0312 77 54.5C83.6667 49.9688 91.6615 47.7031 100.984 47.7031C111.141 47.7031 119.214 50.4635 125.203 55.9844C131.245 61.4531 134.266 68.7708 134.266 77.9375C134.266 86.375 130.594 95.2031 123.25 104.422C115.958 113.641 101.401 126.948 79.5781 144.344Z" fill="#93BB90"/>
</svg>
