<svg width="200" height="213" viewBox="0 0 200 213" fill="none" xmlns="http://www.w3.org/2000/svg">
<path fill-rule="evenodd" clip-rule="evenodd" d="M100 207C155.228 207 200 162.228 200 107C200 51.7715 155.228 7 100 7C44.7715 7 0 51.7715 0 107C0 162.228 44.7715 207 100 207ZM100.333 188.333C145.436 188.333 182 151.77 182 106.667C182 61.5634 145.436 25 100.333 25C55.2299 25 18.6665 61.5634 18.6665 106.667C18.6665 151.77 55.2299 188.333 100.333 188.333Z" fill="#75A371" fill-opacity="0.9"/>
<path d="M107.703 100.516C116.453 101.141 123.302 103.745 128.25 108.328C133.25 112.911 135.75 118.901 135.75 126.297C135.75 135.62 131.948 143.38 124.344 149.578C116.792 155.724 107.078 158.797 95.2031 158.797C86.5052 158.797 79.0573 157 72.8594 153.406C66.6615 149.812 63.5625 145.724 63.5625 141.141C63.5625 138.849 64.4219 136.922 66.1406 135.359C67.8594 133.797 69.9948 133.016 72.5469 133.016C73.4323 133.016 74.2656 133.094 75.0469 133.25C75.8281 133.354 76.5833 133.536 77.3125 133.797L82.3125 147.391C84.4479 148.693 86.6354 149.656 88.875 150.281C91.1667 150.906 93.5104 151.219 95.9062 151.219C103.094 151.219 109.057 148.823 113.797 144.031C118.589 139.188 120.984 133.172 120.984 125.984C120.984 119.578 118.927 114.656 114.812 111.219C110.75 107.729 104.917 105.984 97.3125 105.984C95.8542 105.984 94.3958 106.036 92.9375 106.141C91.5312 106.245 90.1771 106.401 88.875 106.609V97.1562C89.2396 97.1562 89.7865 97.1823 90.5156 97.2344C91.2448 97.2865 91.8177 97.3125 92.2344 97.3125C100.151 97.3125 106.245 95.5156 110.516 91.9219C114.839 88.3281 117 83.25 117 76.6875C117 70.3854 115.151 65.3594 111.453 61.6094C107.755 57.8073 102.833 55.9062 96.6875 55.9062C93.8229 55.9062 91.1406 56.2969 88.6406 57.0781C86.1406 57.8073 83.7448 58.9531 81.4531 60.5156V75.5938C80.5156 76.2708 79.5 76.7917 78.4062 77.1562C77.3646 77.4688 76.1927 77.625 74.8906 77.625C72.3385 77.625 70.2552 76.8438 68.6406 75.2812C67.0781 73.6667 66.2969 71.5833 66.2969 69.0312C66.2969 63.3021 69.5781 58.3281 76.1406 54.1094C82.7031 49.8385 90.6719 47.7031 100.047 47.7031C109.578 47.7031 117.208 50.151 122.938 55.0469C128.667 59.9427 131.531 66.4531 131.531 74.5781C131.531 80.8281 129.5 86.1667 125.438 90.5938C121.375 94.9688 115.464 98.276 107.703 100.516Z" fill="#75A371" fill-opacity="0.9"/>
</svg>
