<?xml version="1.0" encoding="UTF-8" standalone="no"?>
<!DOCTYPE svg PUBLIC "-//W3C//DTD SVG 1.1//EN" "http://www.w3.org/Graphics/SVG/1.1/DTD/svg11.dtd">
<!-- Created with Vectornator (http://vectornator.io/) -->
<svg height="100%" stroke-miterlimit="10" style="fill-rule:nonzero;clip-rule:evenodd;stroke-linecap:round;stroke-linejoin:round;" version="1.1" viewBox="0 0 204 204" width="100%" xml:space="preserve" xmlns="http://www.w3.org/2000/svg" xmlns:vectornator="http://vectornator.io" xmlns:xlink="http://www.w3.org/1999/xlink">
<defs/>
<path d="M0 0L204 0L204 204L0 204L0 0Z" fill="#ffffff" fill-opacity="0" fill-rule="nonzero" opacity="1" stroke="none" vectornator:artboardBackground="true"/>
<g id="Layer-1" vectornator:layerName="Layer 1">
<path d="M102 201C157.228 201 202 156.228 202 101C202 45.7715 157.228 1 102 1C46.7715 1 2 45.7715 2 101C2 156.228 46.7715 201 102 201ZM102.333 182.333C147.436 182.333 184 145.77 184 100.667C184 55.5634 147.436 19 102.333 19C57.2299 19 20.6665 55.5634 20.6665 100.667C20.6665 145.77 57.2299 182.333 102.333 182.333Z" fill="#75a371" fill-opacity="0.9" fill-rule="evenodd" opacity="1" stroke="none" vectornator:layerName="Subtract"/>
<path d="M99.0703 158.047C85.8411 158.047 76.2448 154.414 70.2812 147.148C64.3177 139.883 61.3359 131.042 61.3359 120.625L76.0234 120.625C76.6484 127.865 78.0026 133.125 80.0859 136.406C83.7318 142.292 90.3203 145.234 99.8516 145.234C107.247 145.234 113.185 143.255 117.664 139.297C122.143 135.339 124.383 130.234 124.383 123.984C124.383 116.276 122.026 110.885 117.312 107.812C112.599 104.74 106.049 103.203 97.6641 103.203C96.7266 103.203 95.776 103.216 94.8125 103.242C93.849 103.268 92.8724 103.307 91.8828 103.359L91.8828 90.9375C93.3411 91.0938 94.5651 91.1979 95.5547 91.25C96.5443 91.3021 97.612 91.3281 98.7578 91.3281C104.018 91.3281 108.341 90.4948 111.727 88.8281C117.664 85.9115 120.633 80.7031 120.633 73.2031C120.633 67.6302 118.654 63.3333 114.695 60.3125C110.737 57.2917 106.128 55.7812 100.867 55.7812C91.4922 55.7812 85.0078 58.9062 81.4141 65.1562C79.4349 68.5938 78.3151 73.4896 78.0547 79.8438L64.1484 79.8438C64.1484 71.5104 65.8151 64.4271 69.1484 58.5938C74.8776 48.1771 84.9557 42.9688 99.3828 42.9688C110.789 42.9688 119.617 45.5078 125.867 50.5859C132.117 55.6641 135.242 63.0208 135.242 72.6562C135.242 79.5313 133.393 85.1042 129.695 89.375C127.404 92.0313 124.435 94.1146 120.789 95.625C126.674 97.2396 131.271 100.352 134.578 104.961C137.885 109.57 139.539 115.208 139.539 121.875C139.539 132.552 136.023 141.25 128.992 147.969C121.961 154.688 111.987 158.047 99.0703 158.047Z" fill="#75a371" fill-opacity="0.9" opacity="1" stroke="none" vectornator:layerName="tspan"/>
</g>
</svg>
