<svg xmlns="http://www.w3.org/2000/svg" width="44" height="54" fill="none" viewBox="0 0 44 54"><path fill="#4D7A4B" d="M43.5 34.6977C43.5 45.0819 35.3784 53.5 25 53.5C14.6216 53.5 0 41.8842 0 31.5C0 21.1158 9.62165 0 20 0C30.3784 0 43.5 24.3134 43.5 34.6977Z"/><path fill="#93BB90" d="M43.5 37C43.5 46.1127 35.1127 54 26 54C16.8873 54 3.5 42.1127 3.5 33C3.5 23.8873 11.8873 5 21 5C30.1127 5 43.5 27.8873 43.5 37Z"/><path fill="#62320F" fill-opacity=".8" d="M40 36.5C40 43.9558 34.1797 50 27 50C19.8203 50 13 42.1535 13 34.6977C13 27.2418 19.8203 19.5 27 19.5C34.1797 19.5 40 29.0442 40 36.5Z"/></svg>