<svg xmlns="http://www.w3.org/2000/svg" width="45" height="45" fill="none" viewBox="0 0 45 45"><circle cx="22.5" cy="22.5" r="21" fill="#fff" stroke="#2D632A" stroke-width="3"/><path fill="#2D632A" d="M15.17 32V30.47L23.9 21.92C24.7 21.14 25.3 20.46 25.7 19.88C26.1 19.28 26.37 18.72 26.51 18.2C26.65 17.68 26.72 17.19 26.72 16.73C26.72 15.51 26.3 14.55 25.46 13.85C24.64 13.15 23.42 12.8 21.8 12.8C20.56 12.8 19.46 12.99 18.5 13.37C17.56 13.75 16.75 14.34 16.07 15.14L14.54 13.82C15.36 12.86 16.41 12.12 17.69 11.6C18.97 11.08 20.4 10.82 21.98 10.82C23.4 10.82 24.63 11.05 25.67 11.51C26.71 11.95 27.51 12.6 28.07 13.46C28.65 14.32 28.94 15.33 28.94 16.49C28.94 17.17 28.84 17.84 28.64 18.5C28.46 19.16 28.12 19.86 27.62 20.6C27.14 21.32 26.43 22.14 25.49 23.06L17.48 30.92L16.88 30.08H29.9V32H15.17Z"/></svg>