<svg xmlns="http://www.w3.org/2000/svg" width="45" height="45" fill="none" viewBox="0 0 45 45"><circle cx="22.5" cy="22.5" r="21" fill="#fff" stroke="#2D632A" stroke-width="3"/><path fill="#2D632A" d="M21.83 33.18C20.31 33.18 18.87 32.94 17.51 32.46C16.17 31.96 15.09 31.3 14.27 30.48L15.32 28.77C16 29.47 16.91 30.05 18.05 30.51C19.21 30.97 20.47 31.2 21.83 31.2C23.57 31.2 24.9 30.82 25.82 30.06C26.76 29.3 27.23 28.28 27.23 27C27.23 25.72 26.77 24.7 25.85 23.94C24.95 23.18 23.52 22.8 21.56 22.8H20.06V21.21L26.54 13.08L26.84 13.92H15.14V12H28.64V13.53L22.16 21.66L21.11 20.97H21.92C24.44 20.97 26.32 21.53 27.56 22.65C28.82 23.77 29.45 25.21 29.45 26.97C29.45 28.15 29.17 29.21 28.61 30.15C28.05 31.09 27.2 31.83 26.06 32.37C24.94 32.91 23.53 33.18 21.83 33.18Z"/></svg>