<svg xmlns="http://www.w3.org/2000/svg" width="45" height="45" fill="none" viewBox="0 0 45 45"><circle cx="22.5" cy="22.5" r="21" fill="#fff" stroke="#2D632A" stroke-width="3"/><path fill="#2D632A" d="M22.19 33.18C20.69 33.18 19.26 32.94 17.9 32.46C16.54 31.96 15.46 31.3 14.66 30.48L15.71 28.77C16.37 29.47 17.27 30.05 18.41 30.51C19.57 30.97 20.82 31.2 22.16 31.2C23.94 31.2 25.29 30.81 26.21 30.03C27.15 29.23 27.62 28.19 27.62 26.91C27.62 26.01 27.4 25.24 26.96 24.6C26.54 23.94 25.82 23.43 24.8 23.07C23.78 22.71 22.38 22.53 20.6 22.53H16.13L17.21 12H28.7V13.92H18.08L19.19 12.87L18.26 21.69L17.15 20.61H21.08C23.2 20.61 24.9 20.87 26.18 21.39C27.46 21.91 28.38 22.64 28.94 23.58C29.52 24.5 29.81 25.58 29.81 26.82C29.81 28 29.53 29.08 28.97 30.06C28.41 31.02 27.57 31.78 26.45 32.34C25.33 32.9 23.91 33.18 22.19 33.18Z"/></svg>