<svg width="1050" height="364" viewBox="0 0 1050 364" fill="none" xmlns="http://www.w3.org/2000/svg">
<path d="M253 113H1014V231C1014 242.046 1005.05 251 994 251H253V113Z" fill="#F8CB2A"/>
<mask id="mask0_501_87" style="mask-type:alpha" maskUnits="userSpaceOnUse" x="11" y="11" width="344" height="342">
<ellipse cx="183" cy="182" rx="172" ry="171" fill="#D9D9D9"/>
</mask>
<g mask="url(#mask0_501_87)">
<path fill-rule="evenodd" clip-rule="evenodd" d="M319.126 -9.31934H1973.67L1973.67 292.994C1973.67 337.415 1937.43 373.781 1893.15 373.775L238.606 373.525V71.4619C238.606 27.0311 274.839 -9.31934 319.126 -9.31934Z" fill="#DAC333"/>
<path d="M555.726 217.201V232.903H468.082V220.484L528.567 148.685H469.11V132.983H553.817V145.402L493.333 217.201H555.726ZM599.327 132.983H618.413V217.201H672.143V232.903H599.327V132.983ZM583.471 189.509L634.12 152.255L641.9 161.96L591.252 199.358L583.471 189.509ZM758.024 234.33C747.552 234.33 738.108 232.117 729.692 227.692C721.275 223.268 714.668 217.129 709.871 209.279C705.077 201.428 702.679 192.65 702.679 182.944C702.679 173.237 705.077 164.459 709.871 156.607C714.668 148.757 721.275 142.619 729.692 138.194C738.108 133.769 747.552 131.557 758.024 131.557C768.497 131.557 777.942 133.769 786.359 138.194C794.776 142.619 801.381 148.733 806.177 156.536C810.974 164.34 813.37 173.142 813.37 182.944C813.37 192.745 810.974 201.547 806.177 209.351C801.381 217.153 794.776 223.268 786.359 227.692C777.942 232.117 768.497 234.33 758.024 234.33ZM758.024 218.057C764.875 218.057 771.042 216.559 776.522 213.562C782.003 210.563 786.31 206.377 789.441 201C792.573 195.624 794.139 189.604 794.139 182.944C794.139 176.282 792.573 170.263 789.441 164.887C786.31 159.51 782.003 155.323 776.522 152.325C771.042 149.327 764.875 147.829 758.024 147.829C751.174 147.829 745.008 149.327 739.527 152.325C734.046 155.323 729.74 159.51 726.609 164.887C723.477 170.263 721.91 176.282 721.91 182.944C721.91 189.604 723.477 195.624 726.609 201C729.74 206.377 734.046 210.563 739.527 213.562C745.008 216.559 751.174 218.057 758.024 218.057ZM877.672 148.685H843.613V132.983H930.816V148.685H896.756V232.903H877.672V148.685ZM1012.73 197.646V232.903H993.648V197.931L953.276 132.983H973.682L1003.78 181.659L1034.17 132.983H1052.96L1012.73 197.646ZM1162.48 234.33C1154.55 234.33 1146.89 233.236 1139.5 231.046C1132.11 228.858 1126.26 225.956 1121.96 222.34L1128.56 207.923C1132.77 211.158 1137.93 213.799 1144.05 215.845C1150.17 217.891 1156.31 218.913 1162.48 218.913C1170.11 218.913 1175.81 217.725 1179.58 215.346C1183.35 212.967 1185.23 209.826 1185.23 205.924C1185.23 203.07 1184.18 200.714 1182.07 198.859C1179.97 197.003 1177.3 195.552 1174.07 194.505C1170.84 193.459 1166.44 192.269 1160.86 190.937C1153.03 189.128 1146.69 187.321 1141.85 185.513C1137 183.704 1132.85 180.874 1129.37 177.019C1125.9 173.166 1124.16 167.955 1124.16 161.39C1124.16 155.87 1125.7 150.851 1128.78 146.33C1131.87 141.81 1136.51 138.218 1142.73 135.553C1148.94 132.889 1156.55 131.557 1165.56 131.557C1171.82 131.557 1177.99 132.318 1184.06 133.841C1190.12 135.362 1195.36 137.551 1199.76 140.407L1193.74 154.823C1189.24 152.255 1184.54 150.303 1179.65 148.971C1174.76 147.638 1170.01 146.973 1165.41 146.973C1157.88 146.973 1152.27 148.21 1148.6 150.684C1144.93 153.158 1143.1 156.441 1143.1 160.533C1143.1 163.388 1144.15 165.719 1146.25 167.527C1148.36 169.335 1151.02 170.763 1154.25 171.809C1157.48 172.856 1161.89 174.046 1167.47 175.378C1175.1 177.091 1181.36 178.875 1186.26 180.731C1191.15 182.586 1195.34 185.418 1198.81 189.224C1202.28 193.03 1204.02 198.169 1204.02 204.64C1204.02 210.159 1202.48 215.155 1199.4 219.628C1196.31 224.1 1191.64 227.669 1185.38 230.333C1179.11 232.997 1171.48 234.33 1162.48 234.33ZM1171.87 105.293H1193.45L1167.91 124.848H1152.05L1171.87 105.293ZM1314.86 232.903L1293.87 203.64C1292.99 203.735 1291.66 203.783 1289.9 203.783H1266.71V232.903H1247.62V132.983H1289.9C1298.81 132.983 1306.57 134.411 1313.17 137.266C1319.78 140.12 1324.84 144.213 1328.37 149.542C1331.89 154.871 1333.65 161.199 1333.65 168.527C1333.65 176.045 1331.77 182.515 1328 187.94C1324.23 193.363 1318.82 197.408 1311.78 200.072L1335.41 232.903H1314.86ZM1314.42 168.527C1314.42 162.151 1312.27 157.25 1307.96 153.824C1303.65 150.398 1297.34 148.685 1289.02 148.685H1266.71V188.51H1289.02C1297.34 188.51 1303.65 186.773 1307.96 183.3C1312.27 179.827 1314.42 174.902 1314.42 168.527ZM1427.61 234.33C1417.13 234.33 1407.69 232.117 1399.27 227.692C1390.86 223.268 1384.25 217.129 1379.45 209.279C1374.66 201.428 1372.26 192.65 1372.26 182.944C1372.26 173.237 1374.66 164.459 1379.45 156.607C1384.25 148.757 1390.86 142.619 1399.27 138.194C1407.69 133.769 1417.13 131.557 1427.61 131.557C1438.08 131.557 1447.52 133.769 1455.94 138.194C1464.36 142.619 1470.96 148.733 1475.76 156.536C1480.56 164.34 1482.95 173.142 1482.95 182.944C1482.95 192.745 1480.56 201.547 1475.76 209.351C1470.96 217.153 1464.36 223.268 1455.94 227.692C1447.52 232.117 1438.08 234.33 1427.61 234.33ZM1427.61 218.057C1434.46 218.057 1440.62 216.559 1446.11 213.562C1451.59 210.563 1455.89 206.377 1459.02 201C1462.16 195.624 1463.72 189.604 1463.72 182.944C1463.72 176.282 1462.16 170.263 1459.02 164.887C1455.89 159.51 1451.59 155.323 1446.11 152.325C1440.62 149.327 1434.46 147.829 1427.61 147.829C1420.76 147.829 1414.59 149.327 1409.11 152.325C1403.63 155.323 1399.32 159.51 1396.19 164.887C1393.06 170.263 1391.49 176.282 1391.49 182.944C1391.49 189.604 1393.06 195.624 1396.19 201C1399.32 206.377 1403.63 210.563 1409.11 213.562C1414.59 216.559 1420.76 218.057 1427.61 218.057ZM1527.88 132.983H1572.8C1583.76 132.983 1593.5 135.053 1602.01 139.193C1610.53 143.333 1617.13 149.186 1621.83 156.75C1626.53 164.316 1628.88 173.047 1628.88 182.944C1628.88 192.839 1626.53 201.57 1621.83 209.136C1617.13 216.701 1610.53 222.554 1602.01 226.694C1593.5 230.833 1583.76 232.903 1572.8 232.903H1527.88V132.983ZM1571.92 217.201C1579.45 217.201 1586.08 215.797 1591.81 212.99C1597.54 210.182 1601.94 206.186 1605.02 201C1608.11 195.814 1609.65 189.795 1609.65 182.944C1609.65 176.092 1608.11 170.073 1605.02 164.887C1601.94 159.701 1597.54 155.704 1591.81 152.896C1586.08 150.089 1579.45 148.685 1571.92 148.685H1546.96V217.201H1571.92ZM1750.87 217.344V232.903H1673.8V132.983H1748.82V148.542H1692.89V174.522H1742.51V189.795H1692.89V217.344H1750.87ZM1832.21 191.08L1815.91 207.352V232.903H1796.82V132.983H1815.91V184.228L1866.71 132.983H1888.14L1844.98 177.662L1890.78 232.903H1868.47L1832.21 191.08Z" fill="#0A3B07"/>
<path fill-rule="evenodd" clip-rule="evenodd" d="M72.5114 -9.31934H373.847L373.846 292.994C373.846 337.419 337.608 373.812 293.326 373.775L-8.0083 373.525V71.4619C-8.0083 27.0311 28.2245 -9.31934 72.5114 -9.31934Z" fill="#0A3B07"/>
<path fill-rule="evenodd" clip-rule="evenodd" d="M249.96 291.641C249.96 291.641 249.962 291.64 249.973 291.638C249.973 291.638 249.976 291.638 249.981 291.638C249.972 291.64 249.963 291.641 249.963 291.641H249.96ZM183.089 114.575C183.104 114.529 183.119 114.483 183.135 114.437L183.168 114.343C185.414 108.242 191.976 107.215 195.763 111.752C197.062 109.083 198.743 106.494 200.822 103.951L202.13 102.348L201.798 102.055L201.788 102.043C200.764 101.071 197.833 97.0561 196.4 94.6602C194.724 91.8326 193.28 88.3496 192.393 84.9942C191.726 82.499 191.676 81.9489 191.701 77.3609C191.702 73.1415 191.775 72.1282 192.271 70.4024C194.329 62.9077 198.664 57.4157 204.86 54.4873C207.807 53.0716 209.539 52.6846 213.065 52.6846C213.178 52.6846 213.304 52.6846 213.42 52.6861L213.418 52.6854C215.758 52.6854 217.234 52.81 218.518 53.1532C223.159 54.3811 227.303 56.7586 231.653 60.6926L233.107 61.9959L234.21 61.5858C237.611 60.2878 240.089 59.7754 243.87 59.6492C244.753 59.6115 245.481 59.5908 246.104 59.5908C247.561 59.5908 248.466 59.7 249.565 59.9339L249.57 59.9355C254.563 61.0719 258.883 64.5026 261.146 69.1475C263.215 73.4269 264.127 78.9413 263.645 84.1901L263.644 84.1955C263.555 85.058 263.495 85.8151 263.464 86.2891L263.466 86.2883C263.881 86.2014 264.495 86.0675 265.177 85.9028L265.183 85.9013C266.868 85.5181 269.12 85.3281 271.313 85.3281C273.536 85.3281 275.741 85.5235 277.248 85.9306L277.25 85.9321C279.392 86.5199 282.248 87.7956 283.775 88.862C285.296 89.923 287.837 92.4951 288.873 94.0531C290.233 96.0351 291.431 98.6949 292.169 101.376C292.711 103.347 292.786 104.128 292.786 108.533V108.535C292.761 112.66 292.686 113.834 292.222 115.799C291.959 116.897 291.684 118.012 291.545 118.449L291.543 118.449C292.068 118.597 293.22 119.041 294.378 119.503H294.382L294.388 119.506C307.407 124.852 315.287 135.759 317.361 151.204C317.916 155.514 317.867 162.726 317.233 166.446C316.323 171.698 314.7 176.056 312.232 179.885L312.231 179.888C308.44 185.681 302.426 189.888 296.349 190.917C295.47 191.067 294.359 191.137 293.24 191.137C291.815 191.137 290.335 191.022 289.242 190.789C284.001 189.675 279.954 185.935 278.631 180.888C277.724 177.5 278.25 172.477 279.871 168.076L279.878 168.064C280.03 167.684 280.152 167.337 280.24 167.059C279.717 167.31 278.332 167.835 276.989 168.323L276.982 168.324C272.185 170.043 267.803 170.906 263.907 170.906C258.841 170.906 254.593 169.443 251.353 166.5C248.607 164.003 246.841 161.169 245.468 156.936L244.666 154.548C244.613 154.389 244.653 154.214 244.769 154.094L246.9 151.906C248.623 150.153 249.171 149.361 250.074 147.5C251.398 144.717 251.933 142.396 251.933 139.5V137.238C251.933 137.097 252 136.964 252.112 136.88L253.49 135.85C258.415 132.119 261.683 126.862 262.714 121.097C263.104 118.949 262.905 114.088 262.347 112.044L262.347 112.041C261.713 109.668 259.689 105.804 258.051 103.842C254.52 99.6367 248.137 96.2682 242.201 95.5265L240.846 95.3503C240.661 95.3273 240.51 95.1888 240.469 95.0049L240.043 93.0683C238.523 86.1044 232.735 79.2259 225.84 76.163C225.365 75.9537 224.981 75.8206 224.754 75.7606C224.344 76.7608 222.97 80.2931 222.589 81.3372L222.586 81.3364C222.891 81.5234 223.472 81.8527 224.172 82.2213L224.178 82.2243C228.184 84.4002 230.934 87.1793 232.759 90.8901V90.8924C232.811 90.9978 232.86 91.1009 232.908 91.2071C236.749 99.4875 233.538 108.179 225.131 112.104L225.121 112.108C224.151 112.533 222.868 113.049 222.252 113.212L221.638 113.377L221.87 114.416C221.893 114.519 221.943 114.744 221.976 114.891V114.889C222.163 115.714 222.435 116.92 222.622 117.813L222.953 119.337L223.32 119.257L223.326 119.256C224.63 118.988 226.974 118.125 228.502 117.358C234.003 114.599 237.585 110.395 239.68 104.19L240.432 101.979C240.494 101.796 240.663 101.676 240.853 101.676C240.865 101.676 240.877 101.676 240.889 101.677L241.813 101.754C243.571 101.885 245.833 102.614 248.31 103.805C250.31 104.758 251.105 105.316 252.694 106.936C255.702 109.981 256.832 112.63 256.832 116.701C256.832 121.758 254.399 126.471 249.845 130.407C248.844 131.308 247.265 132.431 246.368 132.97L246.36 132.975C245.624 133.397 245.051 133.814 244.867 133.991L244.864 133.991C244.863 134.232 244.923 134.885 245.048 135.623C245.457 137.805 245.462 141.611 245.044 143.348C244.318 146.44 242.57 148.879 240.097 150.083C238.675 150.781 238.264 150.831 235.466 150.831L235.462 150.831C232.676 150.805 232.213 150.751 230.363 149.993C228.606 149.292 225.494 147.385 223.493 145.786L223.072 145.457L221.815 146.326C218.837 148.422 215.638 149.553 212.438 149.679L212.779 155.728C215.774 155.67 218.987 155.01 221.768 153.867L221.774 153.865C222.019 153.769 222.265 153.683 222.541 153.683C223.051 153.683 223.561 153.984 224.418 154.501C227.51 156.346 230.925 157.264 234.709 157.264C235.81 157.264 236.947 157.186 238.113 157.03L238.118 157.03L238.124 157.031V157.029C238.157 157.025 238.19 157.023 238.226 157.023C238.384 157.023 238.534 157.07 238.669 157.16C239.089 157.44 239.4 158.231 239.868 159.533C243.178 168.776 249.703 174.717 258.609 176.617L258.611 176.618C260.261 176.978 262.117 177.157 264.125 177.157C266.235 177.157 268.504 176.959 270.871 176.565L271.773 176.412C271.797 176.409 271.821 176.407 271.846 176.407C271.943 176.407 272.039 176.439 272.117 176.499C272.215 176.576 272.277 176.689 272.289 176.813L272.464 178.774L272.465 178.776C272.713 181.72 274.003 186.11 274.814 187.12C274.92 187.243 275.013 187.384 275.065 187.525C275.078 187.56 275.21 187.883 274.966 188.127C274.888 188.207 274.786 188.243 274.779 188.245C274.538 188.338 273.491 188.574 272.379 188.778L272.377 188.779C267.783 189.622 263.42 191.578 260.125 194.266L258.17 195.851C258.087 195.917 257.989 195.95 257.89 195.95C257.769 195.95 257.649 195.901 257.562 195.804L256.534 194.673C254.29 192.228 250.381 189.906 246.999 188.972C245.88 188.661 244.576 188.535 242.231 188.535C238.49 188.535 236.454 189.022 233.286 190.624C232.291 191.123 231.377 191.571 231.153 191.647C231.149 191.648 231.07 191.677 230.981 191.677C230.755 191.677 230.6 191.489 230.605 191.49C230.442 191.301 230.052 190.676 229.689 190.013C227.452 186.02 223.464 182.271 219.601 180.529L219.118 180.313L218.064 182.902C217.548 184.187 217.084 185.343 216.87 185.863L216.867 185.861C217.096 186.041 217.554 186.355 218.15 186.722C220.176 187.897 222.987 190.768 224.176 192.843C225.311 194.836 226.179 197.557 226.536 200.092L226.537 200.096C227.31 206.039 224.735 212.177 219.902 215.892L219.9 215.894L219.412 216.264L221.1 218.728C221.562 219.401 221.974 220.008 222.316 220.51C222.582 220.901 222.787 221.203 222.915 221.389L222.918 221.389C223.865 220.856 227.067 217.745 228.461 215.736C231.515 211.261 233.183 205.332 232.743 200.471L232.568 198.639C232.553 198.478 232.624 198.323 232.755 198.231L233.933 197.401L233.936 197.399C236.478 195.647 239.697 194.555 242.356 194.555C246.002 194.555 248.966 195.924 251.891 198.858L251.893 198.86L253.972 200.972C254.11 201.112 254.14 201.324 254.047 201.498L253.552 202.417C252.413 204.678 251.947 206.842 251.947 210.208C251.947 212.013 252.046 213.875 252.138 214.395L252.338 215.4C252.372 215.57 252.305 215.745 252.164 215.847L250.487 217.079C246.465 220.063 243.865 224.844 243.326 230.361C242.956 234.038 243.674 238.962 245.018 242.001C245.232 242.489 245.439 243.031 245.468 243.307C245.468 243.307 245.513 243.574 245.327 243.756C245.235 243.847 245.112 243.88 245.103 243.883C244.85 243.958 243.797 244.1 242.659 244.234C236.751 244.904 232.185 246.906 228.457 250.448C226.366 252.446 225.046 254.262 223.818 256.85C222.89 258.834 221.874 262.702 221.628 265.172L221.476 266.806C221.463 266.965 221.364 267.104 221.22 267.171L219.091 268.152C214.876 270.094 211.617 273.287 209.481 277.522C208.999 278.49 208.269 280.487 208.042 281.31L208.04 281.309C209.088 281.586 212.211 282.335 213.785 282.667L213.795 282.67C213.811 282.674 213.824 282.676 213.834 282.679H213.836C213.894 282.604 214 282.384 214.197 281.762C214.692 280.196 216.126 277.674 217.176 276.541C217.588 276.1 218.602 275.322 219.403 274.768L219.413 274.762C221.662 273.286 224.288 272.573 226.994 272.573C231.159 272.573 235.522 274.261 239.046 277.47L240.284 278.59L241.341 277.688L241.344 277.684C242.089 277.061 243.209 276.063 243.852 275.442L243.86 275.435C244.528 274.825 244.697 274.631 244.733 274.545L244.73 274.543C244.719 274.519 244.692 274.465 244.616 274.354L244.612 274.344C243.852 273.143 239.659 269.945 237.195 268.698L237.193 268.696C235.131 267.638 231.703 266.601 229.814 266.43H229.81L228.007 266.255C227.885 266.243 227.774 266.181 227.698 266.085C227.624 265.987 227.592 265.864 227.61 265.743L227.786 264.588C227.871 263.905 228.28 262.349 228.679 261.122L228.68 261.119C230.919 254.354 235.917 250.594 243.233 250.184L243.234 250.182C243.617 250.161 244.003 250.151 244.396 250.151C250.134 250.151 256.859 252.406 262.156 256.17C264.545 257.88 268.019 261.31 269.481 263.447C272.332 267.61 273.243 270.36 273.243 274.935C273.243 277.545 273.141 278.475 272.646 280.093L272.646 280.095C271.622 283.383 270.381 285.406 267.977 287.819C265.519 290.283 263.242 291.611 260.123 292.361L260.121 292.362C259.193 292.579 258.033 292.679 256.833 292.679C254.969 292.679 252.953 292.437 251.493 291.976C250.883 291.784 250.342 291.667 250.078 291.643C249.769 292.034 248.801 293.313 247.701 294.804L247.699 294.807L247.697 294.809C243.843 299.94 238.921 304.808 234.831 307.459C230.46 310.296 225.703 311.817 221.308 311.817C220.057 311.817 218.834 311.694 217.659 311.443C213.836 310.645 210.907 309.015 207.726 306.001C201.202 299.803 194.733 291.267 193.86 282.093C192.827 276.539 190.607 234.861 191.247 231.943C192.531 230.577 199.191 228.088 202.406 224.796C207.324 219.655 210.351 212.67 210.351 204.88L205.433 117.429C205.338 117.269 205.338 117.028 205.15 116.867C201.083 112.129 200.61 119.116 200.61 122.086V195.404C200.61 196.849 199.191 198.053 197.395 198.053C196.543 198.053 195.692 197.813 195.125 197.332C194.558 196.849 194.179 196.207 194.179 195.484V193.637C194.084 178.219 193.99 162.801 193.706 147.382C193.517 139.673 193.423 131.964 193.139 124.255C193.044 121.685 193.611 118.232 192.288 115.823C190.963 113.494 188.977 113.574 188.032 116.144C187.559 117.51 187.654 119.116 187.654 120.641C187.654 124.175 187.559 127.788 187.559 131.321C187.559 138.469 187.37 145.616 187.275 152.762C187.086 167.056 186.708 181.27 186.425 195.564C186.425 197.01 185.005 198.134 183.208 198.134C181.412 198.134 179.993 197.01 179.993 195.564C179.993 178.058 179.142 160.632 179.142 143.126C179.048 138.068 178.953 132.928 178.858 127.868C178.764 124.817 178.101 121.766 178.386 118.714C178.48 117.59 178.007 112.45 175.17 113.735C174.414 114.137 174.035 115.823 173.846 116.466C173.279 118.312 172.995 120.24 172.806 122.167C172.522 125.781 172.901 129.395 172.806 133.008C172.616 139.914 172.522 146.9 172.428 153.887C172.238 167.86 172.05 181.753 171.766 195.725C171.766 197.171 170.347 198.294 168.55 198.294C167.699 198.294 166.848 197.973 166.281 197.492C165.713 197.01 165.335 196.368 165.335 195.644V186.651C165.335 173.079 165.618 159.589 165.618 146.017C165.618 139.272 165.618 132.446 165.429 125.7C165.429 122.97 166.091 119.196 165.24 116.626C164.2 113.414 161.457 115.1 160.89 117.269C160.417 118.955 160.796 120.801 160.701 122.488C160.417 126.263 160.228 129.957 160.039 133.65C159.188 148.747 158.337 163.925 157.485 179.022C157.013 187.695 156.066 196.448 156.066 205.12C156.066 217.889 162.152 227.912 173.216 231.045C174.071 231.045 176.21 256.581 171.997 281.644C170.968 286.556 169.52 291.681 166.752 297.464C163.077 305.068 155.231 309.537 148.489 311.311C147.137 311.663 145.347 311.835 143.57 311.835C141.795 311.835 139.995 311.664 138.619 311.313C135.923 310.617 132.01 308.651 129.34 306.61C125.509 303.733 118.707 296.1 116.299 292.029L116.297 292.026C116.036 291.578 115.929 291.555 115.916 291.555C115.908 291.555 115.886 291.558 115.844 291.571L115.83 291.575C113.033 292.415 111.7 292.687 109.951 292.687C109.546 292.687 109.131 292.673 108.668 292.649L108.662 292.65C104.367 292.417 101.057 290.911 97.9522 287.82C96.39 286.253 95.7603 285.384 94.7856 283.43L94.7833 283.424C93.2042 280.153 92.7349 278.252 92.7349 274.935C92.7349 271.854 93.1743 269.829 94.4796 267.029L94.4811 267.027C98.0289 259.524 105.914 253.391 115.165 250.952V250.95C117.215 250.411 118.28 250.283 121.211 250.257H121.215C121.38 250.256 121.564 250.255 121.72 250.255C125.446 250.255 126.827 250.554 129.725 251.934C133.748 253.861 136.553 257.577 137.807 262.608C138.125 263.851 138.32 264.679 138.32 265.21V265.208C138.32 265.428 138.288 265.652 138.174 265.849C138.108 265.963 138.02 266.055 137.915 266.127C137.623 266.326 137.224 266.332 136.901 266.332C135.44 266.332 131.501 267.434 129.406 268.473L129.402 268.475C126.662 269.811 124.796 271.118 122.699 273.098L121.195 274.524L121.462 274.801L121.466 274.807C121.772 275.138 122.904 276.177 124.032 277.134H124.034L125.763 278.59L126.702 277.724C130.285 274.363 134.7 272.574 138.97 272.574C141.287 272.574 143.559 273.101 145.626 274.187C148.482 275.699 151.1 278.912 151.861 281.883C152.007 282.422 152.074 282.632 152.12 282.719L152.124 282.718C152.179 282.714 152.266 282.699 152.42 282.667C153.574 282.432 156.923 281.58 157.925 281.298L157.921 281.296C157.802 280.696 157.322 279.223 156.764 277.985C154.779 273.608 150.404 269.375 146.265 267.812C144.854 267.291 144.448 267.121 144.448 266.036C144.448 265.628 144.28 264.23 144.054 262.92C142.553 254.186 137.184 248.012 128.749 245.348L128.745 245.346C126.935 244.757 125.566 244.509 121.864 244.059L120.836 243.932C120.699 243.916 120.578 243.836 120.507 243.717C120.437 243.598 120.426 243.452 120.477 243.324L121.078 241.815L121.079 241.813C123.887 234.919 123.285 226.958 119.618 221.441L119.617 221.438C118.492 219.721 115.857 217.087 114.525 216.3L114.517 216.294C113.959 215.947 113.547 215.541 113.779 214.845C114.619 211.81 114.379 207.765 113.129 204.198C112.704 203.016 112.303 201.86 112.225 201.627L112.218 201.603C112.185 201.482 112.193 201.366 112.212 201.276C112.315 200.773 113.006 199.965 114.058 198.887C116.849 196.046 120.087 194.577 123.582 194.577C124.591 194.577 125.615 194.7 126.655 194.944C128.385 195.357 130.941 196.536 132.301 197.582L133.127 198.185C133.243 198.269 133.311 198.403 133.311 198.546V201.612C133.311 207.696 135.081 212.75 138.799 217.369C139.854 218.686 142.27 220.826 143.059 221.319L143.063 221.319C143.382 220.913 144.087 219.945 144.878 218.803L146.522 216.396L144.603 214.47C141.066 210.922 139.437 207.09 139.437 202.24C139.437 199.204 140.004 196.75 141.41 193.828C142.334 191.898 142.94 191.026 144.528 189.435C145.597 188.337 147.156 187.076 147.976 186.598L147.982 186.594C148.497 186.302 148.91 186.055 149.137 185.905L149.133 185.905C148.978 185.478 148.634 184.58 148.215 183.559L148.213 183.552C147.641 182.134 147.094 180.733 146.961 180.391L146.918 180.282L145.646 180.921C142.168 182.69 138.622 186.07 136.483 189.771L136.481 189.775C136.007 190.573 135.512 191.311 135.305 191.517C135.305 191.517 135.16 191.677 134.946 191.677C134.862 191.677 134.792 191.653 134.776 191.649C134.568 191.584 134.007 191.303 133.469 190.988L133.465 190.986C131.964 190.087 129.384 189.148 127.321 188.754C126.133 188.527 124.941 188.414 123.756 188.414C118.672 188.414 113.734 190.471 109.932 194.285L108.378 195.867C108.292 195.955 108.177 196 108.062 196C107.955 196 107.848 195.961 107.763 195.884L106.634 194.853L106.633 194.851C103.379 191.831 97.5327 189.226 92.4227 188.533L91.2195 188.38C91.0761 188.362 90.9503 188.276 90.882 188.147C90.8145 188.018 90.813 187.864 90.879 187.735L91.4802 186.555C92.6797 184.146 93.5861 180.47 93.5861 178.085V176.827C93.5861 176.697 93.6429 176.573 93.7411 176.489C93.8224 176.419 93.9259 176.382 94.0317 176.382C94.054 176.382 94.077 176.383 94.0985 176.387L95.3945 176.588C99.246 177.114 100.103 177.186 101.801 177.212L101.799 177.21C101.827 177.21 101.833 177.21 101.861 177.21C113.38 177.21 122.686 170.26 126.43 158.842C126.692 158.009 126.905 157.414 127.201 157.147C127.328 157.031 127.491 156.951 127.685 156.951C127.779 156.951 127.863 156.97 127.935 156.995L127.938 156.996C127.945 156.999 127.957 157.003 127.963 157.006H127.967C128.405 157.178 129.736 157.295 131.219 157.295C132.231 157.295 133.251 157.241 134.005 157.133C136.529 156.763 139.01 155.902 141.346 154.618L141.352 154.615L143.231 153.61C143.295 153.575 143.367 153.557 143.44 153.557C143.494 153.557 143.55 153.568 143.603 153.589L145.13 154.192L145.133 154.193C147.647 155.205 150.557 155.715 153.531 155.715H153.607L153.956 149.551L153.464 149.553C151.217 149.553 150.569 149.43 149.048 148.868C147.496 148.296 145.182 146.991 143.113 145.551L143.11 145.55C142.955 145.55 142.563 145.757 141.177 146.794C137.49 149.574 133.966 150.956 130.36 150.956C128.009 150.956 126.978 150.687 125.124 149.586L125.121 149.585C123.25 148.458 121.684 146.189 121.085 143.755C120.566 141.673 120.518 137.738 121.004 135.295L121.271 133.899L120.269 133.327C113.909 129.729 109.585 123.652 109.197 117.61C108.937 113.354 110.267 109.936 113.41 106.784L113.412 106.781C114.899 105.316 115.767 104.682 117.696 103.78C119.981 102.685 121.999 102.016 124.18 101.683L124.181 101.681L125.184 101.53C125.207 101.527 125.228 101.526 125.25 101.526C125.446 101.526 125.622 101.655 125.678 101.85L126.128 103.432L126.129 103.437C127.628 108.93 131.561 114.033 136.314 116.739C138.122 117.745 141.905 119.17 142.974 119.34L142.978 119.34C143.282 118.347 144.197 114.553 144.408 113.471L144.404 113.471C144.2 113.376 143.853 113.237 143.433 113.106L143.427 113.104C137.86 111.285 133.671 107.45 132.216 102.733C129.759 94.8672 134.116 86.0921 142.362 81.8912L142.369 81.8881C142.843 81.6588 143.211 81.4311 143.396 81.2949L143.392 81.2941C143.08 80.3708 141.734 76.8208 141.272 75.7029C140.987 75.816 140.546 76.0037 140.044 76.2345L140.04 76.2376C136.18 77.9888 132.058 81.4295 129.725 84.7803C127.683 87.7417 126.576 90.3761 125.685 94.3209C125.491 95.2549 124.983 95.3534 123.784 95.5265H123.775C121.97 95.7474 118.755 96.6637 116.754 97.507C115.073 98.2187 113.534 99.082 112.145 100.071C102.413 106.998 99.9392 120.115 107.297 130.518C108.396 132.062 111.635 135.31 113.067 136.288L113.944 136.865C114.069 136.947 114.144 137.087 114.144 137.238V139.794C114.169 141.165 114.318 142.906 114.481 143.617C115.313 146.979 117.222 150.29 119.66 152.568L121.213 153.974C121.338 154.088 121.388 154.262 121.343 154.425L120.894 156.054C120.252 158.477 117.942 162.962 116.468 164.7C112.916 168.884 108.376 170.839 102.301 170.865C102.245 170.866 102.166 170.865 102.11 170.865C97.0265 170.865 92.7794 169.874 85.802 167.089C85.8856 167.347 86.0144 167.714 86.2046 168.227C87.9248 172.922 88.4547 177.723 87.5712 181.013C86.3212 185.771 82.3417 189.347 77.0922 190.535C76.1167 190.756 74.6465 190.854 73.1149 190.854C70.7981 190.854 68.2205 190.629 66.8401 190.199C63.9994 189.335 62.4549 188.612 60.3114 187.179C47.8299 178.864 44.2162 154.374 52.7189 137.364C57.1018 128.595 63.8759 122.433 72.8273 119.024L72.832 119.023C73.5114 118.773 74.1212 118.536 74.4655 118.4L74.4609 118.399C74.3965 118.071 74.2607 117.485 74.082 116.787C72.4593 110.376 72.8074 103.21 74.9808 98.0525L74.9816 98.0502C77.6152 91.868 82.584 87.5247 89.0322 85.8298C90.3091 85.4943 92.2318 85.3466 94.2472 85.3466C97.1998 85.3466 100.478 85.6643 102.37 86.2483H102.374C102.441 85.6189 102.481 84.1709 102.481 81.7111C102.481 75.6667 102.861 73.5085 104.629 69.7823C107.114 64.5142 110.776 61.4304 116.271 60.0386C117.565 59.7139 118.349 59.5892 119.811 59.5892C120.427 59.5892 121.163 59.6108 122.109 59.6492C125.845 59.7762 127.84 60.1886 131.834 61.5835L131.837 61.5843L133.036 61.999L134.77 60.3948C138.326 57.0825 142.819 54.4835 147.272 53.1562L147.276 53.1547C148.538 52.7908 150.508 52.6215 152.477 52.6215C154.652 52.6215 156.909 52.8293 158.302 53.2578L158.304 53.2586C158.574 53.3432 158.84 53.4317 159.104 53.5256C171.909 58.0581 177.837 73.347 172.597 88.2449C171.15 92.3451 168.441 97.0423 165.477 100.551L165.475 100.553C164.841 101.293 164.272 102.023 164.058 102.311L164.055 102.31C164.147 102.537 164.499 103.074 165.174 103.868C167.224 106.297 168.904 108.892 170.206 111.579C170.774 110.609 171.551 109.772 172.746 109.138L172.889 109.062L173.038 108.995C174.892 108.156 176.964 108.081 178.825 108.953C180.995 109.968 182.399 112.171 183.089 114.575ZM207.717 281.218L207.707 281.214C207.64 281.189 207.62 281.177 207.628 281.177C207.636 281.177 207.674 281.19 207.72 281.218H207.717ZM280.506 166.716C280.493 166.701 280.483 166.686 280.474 166.673L280.509 166.716H280.506ZM222.371 81.1964L222.37 81.1949C222.349 81.1772 222.34 81.1679 222.34 81.1679C222.345 81.1679 222.358 81.1787 222.374 81.1964H222.371ZM224.551 75.7229C224.545 75.7229 224.546 75.7229 224.558 75.7229H224.565H224.567C224.562 75.7229 224.554 75.7229 224.554 75.7229H224.551ZM74.4985 118.705C74.4969 118.696 74.4969 118.678 74.4992 118.656L74.5023 118.658C74.5031 118.68 74.5031 118.696 74.5023 118.705H74.4985ZM144.6 113.581C144.595 113.578 144.59 113.574 144.581 113.567H144.585C144.594 113.574 144.6 113.578 144.603 113.581H144.6ZM279.137 267.815L279.245 267.802C279.319 267.783 279.7 267.71 280.115 267.661L280.127 267.66C281.932 267.401 284.131 266.707 286.145 265.734C287.902 264.905 288.746 264.268 290.278 262.705C293.238 259.708 294.653 256.545 295.163 251.934C295.852 245.756 293.662 238.299 289.806 233.482L289.802 233.478C289.477 233.082 289.192 232.717 288.982 232.438C289.377 232.4 289.924 232.359 290.538 232.322C293.553 232.142 295.663 231.599 298.593 230.219C304.247 227.561 308.255 223.618 311.054 217.947C313.037 213.891 313.53 211.863 313.556 207.321C313.581 204.234 313.481 203.308 312.988 201.589C312.372 199.405 311.024 196.546 309.767 194.745L309.766 194.743C309.335 194.133 308.918 193.542 308.821 193.396C308.671 193.168 308.414 193.159 308.345 193.157C308.335 193.155 308.332 193.157 308.322 193.157C307.903 193.157 307.048 193.476 306.113 193.916C301.574 195.98 298.079 196.817 293.894 196.817C291.086 196.817 289.469 196.599 284.167 195.445L284.165 195.444C281.599 194.9 279.388 194.612 277.334 194.612C273.84 194.612 270.837 195.444 267.34 197.19C263.172 199.254 260.254 201.904 258.694 205.058L258.693 205.061C257.876 206.726 257.821 207.028 257.821 209.705C257.821 212.202 257.901 212.746 258.582 214.353C258.998 215.344 259.942 217.005 260.684 218.057L260.692 218.067V218.069C261.087 218.61 261.426 219.092 261.66 219.434L261.663 219.435C261.56 219.437 261.446 219.44 261.323 219.44C255.845 219.44 250.833 223.866 249.416 229.836C248.973 231.664 248.973 235.23 249.415 237.084C249.932 239.213 251.37 241.995 252.797 243.609C253.879 244.827 254.468 245.216 256.272 245.94L256.277 245.941C259.679 247.262 264.427 249.833 266.667 251.537C269.311 253.521 272.558 256.904 274.256 259.471L274.259 259.476C274.994 260.556 276.235 262.82 277.058 264.522L277.059 264.525C277.789 266.012 278.503 267.333 278.753 267.623C278.753 267.623 278.901 267.815 279.137 267.815ZM103.78 219.371L103.777 219.369L103.778 219.367L103.784 219.371H103.78ZM87.1165 267.841C87.3803 267.841 87.5444 267.573 87.5444 267.558L87.5375 267.56C87.6993 267.259 88.2738 266.055 88.9218 264.668C90.8061 260.614 92.8315 257.665 95.7258 254.737C99.3334 251.092 104.686 247.735 109.838 245.922L109.846 245.919C111.296 245.389 111.906 244.967 113.075 243.69C115.792 240.78 117.232 236.562 116.949 232.449C116.692 228.79 115.53 225.901 113.251 223.382C111.116 221.031 107.642 219.44 104.554 219.44C104.456 219.44 104.362 219.437 104.279 219.434L104.283 219.434C104.408 219.27 104.564 219.076 104.74 218.871C105.864 217.56 107.295 214.838 107.837 213C108.727 210.005 108.152 206.251 106.456 203.608C104.561 200.614 100.763 197.823 96.6883 196.342C93.6237 195.212 90.9626 194.649 88.0843 194.649C85.6555 194.649 83.0902 195.049 80.0171 195.826C76.9426 196.609 74.2791 196.993 71.8465 196.993C70.7183 196.993 69.6416 196.911 68.5932 196.748L68.5902 196.747C65.4312 196.276 63.6436 195.713 60.3949 194.195L58.0168 193.064C57.9562 193.036 57.8917 193.022 57.8273 193.022C57.7 193.022 57.5773 193.076 57.4906 193.175L56.8395 193.929L56.8357 193.935C55.7114 195.271 54.1109 198.367 53.4222 200.387L53.4199 200.392C50.7073 208.661 53.0725 217.755 59.7116 224.646C64.1881 229.288 69.5756 231.936 75.3865 232.322H75.3896C76.02 232.36 76.5776 232.407 76.9748 232.451L76.9787 232.452C76.8238 232.657 76.632 232.909 76.4196 233.183C73.8926 236.384 72.1617 240.245 71.2721 244.554C70.6332 247.604 70.7061 252.503 71.4032 255.069L71.404 255.071C73.2806 261.881 78.2349 266.271 85.5328 267.557C86.3473 267.704 87.029 267.831 87.0352 267.833L87.1165 267.841Z" fill="#FEFEFE"/>
</g>
<path d="M410.554 204V198.78L437.674 165.66L438.574 168.6H410.974V162H445.594V167.22L418.474 200.34L417.514 197.4H446.374V204H410.554ZM460.119 204V162H467.919V197.4H489.879V204H460.119ZM456.879 189.9L453.699 185.76L474.399 170.1L477.579 174.18L456.879 189.9ZM521 204.6C517.72 204.6 514.7 204.06 511.94 202.98C509.18 201.9 506.78 200.4 504.74 198.48C502.7 196.52 501.12 194.24 500 191.64C498.88 189 498.32 186.12 498.32 183C498.32 179.88 498.88 177.02 500 174.42C501.12 171.78 502.7 169.5 504.74 167.58C506.78 165.62 509.18 164.1 511.94 163.02C514.7 161.94 517.7 161.4 520.94 161.4C524.22 161.4 527.22 161.94 529.94 163.02C532.7 164.1 535.1 165.62 537.14 167.58C539.18 169.5 540.76 171.78 541.88 174.42C543 177.02 543.56 179.88 543.56 183C543.56 186.12 543 189 541.88 191.64C540.76 194.28 539.18 196.56 537.14 198.48C535.1 200.4 532.7 201.9 529.94 202.98C527.22 204.06 524.24 204.6 521 204.6ZM520.94 197.76C523.06 197.76 525.02 197.4 526.82 196.68C528.62 195.96 530.18 194.94 531.5 193.62C532.82 192.26 533.84 190.7 534.56 188.94C535.32 187.14 535.7 185.16 535.7 183C535.7 180.84 535.32 178.88 534.56 177.12C533.84 175.32 532.82 173.76 531.5 172.44C530.18 171.08 528.62 170.04 526.82 169.32C525.02 168.6 523.06 168.24 520.94 168.24C518.82 168.24 516.86 168.6 515.06 169.32C513.3 170.04 511.74 171.08 510.38 172.44C509.06 173.76 508.02 175.32 507.26 177.12C506.54 178.88 506.18 180.84 506.18 183C506.18 185.12 506.54 187.08 507.26 188.88C508.02 190.68 509.06 192.26 510.38 193.62C511.7 194.94 513.26 195.96 515.06 196.68C516.86 197.4 518.82 197.76 520.94 197.76ZM565.762 204V168.6H551.842V162H587.482V168.6H573.562V204H565.762ZM609.011 204V187.38L610.751 192.18L592.511 162H600.851L615.491 186.3H610.811L625.571 162H633.251L615.011 192.18L616.811 187.38V204H609.011ZM679.961 204.6C676.681 204.6 673.541 204.14 670.541 203.22C667.541 202.26 665.161 201.04 663.401 199.56L666.101 193.5C667.781 194.82 669.861 195.92 672.341 196.8C674.821 197.68 677.361 198.12 679.961 198.12C682.161 198.12 683.941 197.88 685.301 197.4C686.661 196.92 687.661 196.28 688.301 195.48C688.941 194.64 689.261 193.7 689.261 192.66C689.261 191.38 688.801 190.36 687.881 189.6C686.961 188.8 685.761 188.18 684.281 187.74C682.841 187.26 681.221 186.82 679.421 186.42C677.661 186.02 675.881 185.56 674.081 185.04C672.321 184.48 670.701 183.78 669.221 182.94C667.781 182.06 666.601 180.9 665.681 179.46C664.761 178.02 664.301 176.18 664.301 173.94C664.301 171.66 664.901 169.58 666.101 167.7C667.341 165.78 669.201 164.26 671.681 163.14C674.201 161.98 677.381 161.4 681.221 161.4C683.741 161.4 686.241 161.72 688.721 162.36C691.201 163 693.361 163.92 695.201 165.12L692.741 171.18C690.861 170.06 688.921 169.24 686.921 168.72C684.921 168.16 683.001 167.88 681.161 167.88C679.001 167.88 677.241 168.14 675.881 168.66C674.561 169.18 673.581 169.86 672.941 170.7C672.341 171.54 672.041 172.5 672.041 173.58C672.041 174.86 672.481 175.9 673.361 176.7C674.281 177.46 675.461 178.06 676.901 178.5C678.381 178.94 680.021 179.38 681.821 179.82C683.621 180.22 685.401 180.68 687.161 181.2C688.961 181.72 690.581 182.4 692.021 183.24C693.501 184.08 694.681 185.22 695.561 186.66C696.481 188.1 696.941 189.92 696.941 192.12C696.941 194.36 696.321 196.44 695.081 198.36C693.881 200.24 692.021 201.76 689.501 202.92C686.981 204.04 683.801 204.6 679.961 204.6ZM675.701 158.58L683.801 150.36H692.621L682.181 158.58H675.701ZM710.675 204V162H727.955C731.675 162 734.855 162.6 737.495 163.8C740.175 165 742.235 166.72 743.675 168.96C745.115 171.2 745.835 173.86 745.835 176.94C745.835 180.02 745.115 182.68 743.675 184.92C742.235 187.12 740.175 188.82 737.495 190.02C734.855 191.18 731.675 191.76 727.955 191.76H714.995L718.475 188.22V204H710.675ZM738.155 204L727.535 188.76H735.875L746.555 204H738.155ZM718.475 189.06L714.995 185.34H727.595C731.035 185.34 733.615 184.6 735.335 183.12C737.095 181.64 737.975 179.58 737.975 176.94C737.975 174.26 737.095 172.2 735.335 170.76C733.615 169.32 731.035 168.6 727.595 168.6H714.995L718.475 164.76V189.06ZM780.242 204.6C776.962 204.6 773.942 204.06 771.182 202.98C768.422 201.9 766.022 200.4 763.982 198.48C761.942 196.52 760.362 194.24 759.242 191.64C758.122 189 757.562 186.12 757.562 183C757.562 179.88 758.122 177.02 759.242 174.42C760.362 171.78 761.942 169.5 763.982 167.58C766.022 165.62 768.422 164.1 771.182 163.02C773.942 161.94 776.942 161.4 780.182 161.4C783.462 161.4 786.462 161.94 789.182 163.02C791.942 164.1 794.342 165.62 796.382 167.58C798.422 169.5 800.002 171.78 801.122 174.42C802.242 177.02 802.802 179.88 802.802 183C802.802 186.12 802.242 189 801.122 191.64C800.002 194.28 798.422 196.56 796.382 198.48C794.342 200.4 791.942 201.9 789.182 202.98C786.462 204.06 783.482 204.6 780.242 204.6ZM780.182 197.76C782.302 197.76 784.262 197.4 786.062 196.68C787.862 195.96 789.422 194.94 790.742 193.62C792.062 192.26 793.082 190.7 793.802 188.94C794.562 187.14 794.942 185.16 794.942 183C794.942 180.84 794.562 178.88 793.802 177.12C793.082 175.32 792.062 173.76 790.742 172.44C789.422 171.08 787.862 170.04 786.062 169.32C784.262 168.6 782.302 168.24 780.182 168.24C778.062 168.24 776.102 168.6 774.302 169.32C772.542 170.04 770.982 171.08 769.622 172.44C768.302 173.76 767.262 175.32 766.502 177.12C765.782 178.88 765.422 180.84 765.422 183C765.422 185.12 765.782 187.08 766.502 188.88C767.262 190.68 768.302 192.26 769.622 193.62C770.942 194.94 772.502 195.96 774.302 196.68C776.102 197.4 778.062 197.76 780.182 197.76ZM817.07 204V162H835.43C839.99 162 843.99 162.88 847.43 164.64C850.87 166.4 853.55 168.84 855.47 171.96C857.39 175.08 858.35 178.76 858.35 183C858.35 187.2 857.39 190.88 855.47 194.04C853.55 197.16 850.87 199.6 847.43 201.36C843.99 203.12 839.99 204 835.43 204H817.07ZM824.87 197.4H835.07C838.23 197.4 840.95 196.8 843.23 195.6C845.55 194.4 847.33 192.72 848.57 190.56C849.85 188.4 850.49 185.88 850.49 183C850.49 180.08 849.85 177.56 848.57 175.44C847.33 173.28 845.55 171.6 843.23 170.4C840.95 169.2 838.23 168.6 835.07 168.6H824.87V197.4ZM879.84 179.46H900.72V185.88H879.84V179.46ZM880.44 197.46H904.14V204H872.64V162H903.3V168.54H880.44V197.46ZM925.795 194.1L925.375 184.86L947.395 162H956.155L937.855 181.44L933.535 186.18L925.795 194.1ZM918.835 204V162H926.635V204H918.835ZM948.115 204L932.035 184.86L937.195 179.16L957.235 204H948.115Z" fill="#0A3B07"/>
</svg>
