<svg width="821" height="640" viewBox="0 0 821 640" fill="none" xmlns="http://www.w3.org/2000/svg">
<mask id="mask0_496_79" style="mask-type:alpha" maskUnits="userSpaceOnUse" x="26" y="33" width="170" height="168">
<ellipse cx="110.766" cy="117" rx="84.7657" ry="84" fill="#D9D9D9"/>
</mask>
<g mask="url(#mask0_496_79)">
<path fill-rule="evenodd" clip-rule="evenodd" d="M177.852 23.0186H993.251L993.251 171.523C993.251 193.344 975.39 211.208 953.569 211.205L138.17 211.083V62.7006C138.17 40.8749 156.026 23.0186 177.852 23.0186Z" fill="#DAC333"/>
<path d="M294.454 134.292V142.005H251.261V135.904L281.069 100.635H251.768V92.9217H293.513V99.0222L263.705 134.292H294.454ZM315.942 92.9217H325.348V134.292H351.827V142.005H315.942V92.9217ZM308.128 120.689L333.089 102.388L336.923 107.156L311.962 125.527L308.128 120.689ZM394.152 142.706C388.991 142.706 384.337 141.619 380.188 139.445C376.04 137.272 372.784 134.256 370.421 130.4C368.058 126.544 366.876 122.232 366.876 117.464C366.876 112.695 368.058 108.383 370.421 104.526C372.784 100.67 376.04 97.6548 380.188 95.4812C384.337 93.3076 388.991 92.2209 394.152 92.2209C399.313 92.2209 403.967 93.3076 408.115 95.4812C412.263 97.6548 415.519 100.658 417.882 104.491C420.246 108.325 421.427 112.649 421.427 117.464C421.427 122.278 420.246 126.602 417.882 130.435C415.519 134.268 412.263 137.272 408.115 139.445C403.967 141.619 399.313 142.706 394.152 142.706ZM394.152 134.712C397.528 134.712 400.567 133.976 403.268 132.504C405.969 131.031 408.091 128.975 409.634 126.333C411.178 123.692 411.95 120.735 411.95 117.464C411.95 114.191 411.178 111.234 409.634 108.593C408.091 105.952 405.969 103.896 403.268 102.423C400.567 100.95 397.528 100.214 394.152 100.214C390.775 100.214 387.737 100.95 385.036 102.423C382.334 103.896 380.212 105.952 378.669 108.593C377.126 111.234 376.354 114.191 376.354 117.464C376.354 120.735 377.126 123.692 378.669 126.333C380.212 128.975 382.334 131.031 385.036 132.504C387.737 133.976 390.775 134.712 394.152 134.712ZM453.117 100.635H436.332V92.9217H479.307V100.635H462.522V142.005H453.117V100.635ZM519.678 124.686V142.005H510.273V124.826L490.376 92.9217H500.433L515.265 116.832L530.241 92.9217H539.502L519.678 124.686ZM593.475 142.706C589.568 142.706 585.794 142.169 582.152 141.093C578.511 140.018 575.629 138.592 573.506 136.816L576.762 129.734C578.836 131.323 581.38 132.621 584.395 133.626C587.409 134.631 590.436 135.133 593.475 135.133C597.237 135.133 600.046 134.549 601.903 133.38C603.76 132.212 604.689 130.669 604.689 128.752C604.689 127.35 604.17 126.193 603.133 125.282C602.096 124.37 600.782 123.657 599.191 123.143C597.599 122.629 595.428 122.044 592.679 121.39C588.82 120.502 585.697 119.614 583.309 118.726C580.922 117.837 578.872 116.447 577.16 114.553C575.447 112.66 574.591 110.101 574.591 106.876C574.591 104.164 575.351 101.698 576.87 99.478C578.39 97.2575 580.681 95.4933 583.744 94.184C586.807 92.8752 590.557 92.2209 594.994 92.2209C598.081 92.2209 601.12 92.5947 604.11 93.3427C607.101 94.0903 609.681 95.1656 611.851 96.5682L608.885 103.65C606.666 102.388 604.351 101.43 601.939 100.775C599.528 100.121 597.189 99.7936 594.922 99.7936C591.208 99.7936 588.447 100.401 586.638 101.616C584.829 102.832 583.924 104.445 583.924 106.455C583.924 107.857 584.443 109.002 585.48 109.891C586.517 110.779 587.831 111.48 589.423 111.994C591.015 112.508 593.185 113.093 595.935 113.747C599.697 114.589 602.784 115.465 605.195 116.377C607.607 117.288 609.669 118.679 611.381 120.549C613.094 122.418 613.95 124.943 613.95 128.121C613.95 130.833 613.19 133.287 611.671 135.484C610.151 137.681 607.848 139.434 604.762 140.743C601.674 142.051 597.912 142.706 593.475 142.706ZM598.105 79.3192H608.741L596.151 88.9252H588.338L598.105 79.3192ZM668.574 142.005L658.228 127.63C657.794 127.677 657.142 127.701 656.274 127.701H644.843V142.005H635.437V92.9217H656.274C660.663 92.9217 664.486 93.6232 667.742 95.0254C670.997 96.4276 673.494 98.4379 675.23 101.056C676.966 103.674 677.834 106.782 677.834 110.382C677.834 114.075 676.906 117.253 675.049 119.918C673.192 122.582 670.527 124.569 667.054 125.878L678.702 142.005H668.574ZM668.357 110.382C668.357 107.249 667.296 104.842 665.174 103.159C663.051 101.476 659.94 100.635 655.84 100.635H644.843V120.198H655.84C659.94 120.198 663.051 119.345 665.174 117.639C667.296 115.933 668.357 113.513 668.357 110.382ZM724.138 142.706C718.977 142.706 714.323 141.619 710.175 139.445C706.027 137.272 702.771 134.256 700.407 130.4C698.044 126.544 696.862 122.232 696.862 117.464C696.862 112.695 698.044 108.383 700.407 104.526C702.771 100.67 706.027 97.6548 710.175 95.4812C714.323 93.3076 718.977 92.2209 724.138 92.2209C729.299 92.2209 733.953 93.3076 738.102 95.4812C742.25 97.6548 745.505 100.658 747.869 104.491C750.233 108.325 751.414 112.649 751.414 117.464C751.414 122.278 750.233 126.602 747.869 130.435C745.505 134.268 742.25 137.272 738.102 139.445C733.953 141.619 729.299 142.706 724.138 142.706ZM724.138 134.712C727.514 134.712 730.553 133.976 733.254 132.504C735.955 131.031 738.078 128.975 739.621 126.333C741.164 123.692 741.936 120.735 741.936 117.464C741.936 114.191 741.164 111.234 739.621 108.593C738.078 105.952 735.955 103.896 733.254 102.423C730.553 100.95 727.514 100.214 724.138 100.214C720.762 100.214 717.723 100.95 715.022 102.423C712.321 103.896 710.199 105.952 708.655 108.593C707.112 111.234 706.34 114.191 706.34 117.464C706.34 120.735 707.112 123.692 708.655 126.333C710.199 128.975 712.321 131.031 715.022 132.504C717.723 133.976 720.762 134.712 724.138 134.712ZM773.553 92.9217H795.692C801.094 92.9217 805.893 93.9384 810.09 95.9721C814.286 98.0055 817.542 100.881 819.857 104.597C822.172 108.313 823.33 112.602 823.33 117.464C823.33 122.324 822.172 126.614 819.857 130.33C817.542 134.046 814.286 136.921 810.09 138.955C805.893 140.988 801.094 142.005 795.692 142.005H773.553V92.9217ZM795.258 134.292C798.972 134.292 802.24 133.602 805.061 132.223C807.883 130.844 810.053 128.881 811.573 126.333C813.092 123.786 813.852 120.829 813.852 117.464C813.852 114.098 813.092 111.141 811.573 108.593C810.053 106.046 807.883 104.083 805.061 102.703C802.24 101.324 798.972 100.635 795.258 100.635H782.959V134.292H795.258ZM883.452 134.362V142.005H845.469V92.9217H882.439V100.565H854.874V113.327H879.328V120.829H854.874V134.362H883.452ZM923.534 121.46L915.503 129.454V142.005H906.097V92.9217H915.503V118.094L940.536 92.9217H951.099L929.828 114.869L952.401 142.005H941.404L923.534 121.46Z" fill="#0F4E0B"/>
<path fill-rule="evenodd" clip-rule="evenodd" d="M56.3144 23.0186H204.82L204.819 171.523C204.819 193.346 186.96 211.224 165.137 211.205L16.6323 211.083V62.7006C16.6323 40.8749 34.4887 23.0186 56.3144 23.0186Z" fill="#0F4E0B"/>
<path fill-rule="evenodd" clip-rule="evenodd" d="M143.765 170.859C143.765 170.859 143.766 170.858 143.772 170.857C143.772 170.857 143.773 170.857 143.776 170.857C143.771 170.858 143.767 170.859 143.767 170.859H143.765ZM110.809 83.8792C110.817 83.8565 110.825 83.8338 110.833 83.8111L110.849 83.765C111.955 80.7682 115.189 80.2633 117.056 82.4921C117.696 81.181 118.524 79.9091 119.549 78.66L120.193 77.8727L120.03 77.7287L120.025 77.7231C119.521 77.2453 118.076 75.2732 117.37 74.0962C116.544 72.7072 115.832 70.9963 115.395 69.348C115.066 68.1223 115.041 67.8521 115.054 65.5983C115.054 63.5256 115.09 63.0279 115.335 62.1801C116.349 58.4985 118.485 55.8007 121.539 54.3622C122.991 53.6668 123.845 53.4766 125.583 53.4766C125.638 53.4766 125.7 53.4766 125.757 53.4774L125.756 53.477C126.91 53.477 127.637 53.5382 128.27 53.7068C130.557 54.31 132.6 55.4779 134.743 57.4104L135.46 58.0506L136.003 57.8492C137.679 57.2116 138.9 56.9598 140.764 56.8979C141.199 56.8793 141.558 56.8691 141.865 56.8691C142.583 56.8691 143.029 56.9228 143.571 57.0377L143.573 57.0385C146.034 57.5967 148.163 59.282 149.278 61.5637C150.298 63.6659 150.747 66.3746 150.51 68.953L150.509 68.9557C150.465 69.3794 150.436 69.7513 150.42 69.9841L150.422 69.9837C150.626 69.941 150.928 69.8752 151.265 69.7944L151.267 69.7936C152.098 69.6054 153.208 69.512 154.288 69.512C155.384 69.512 156.471 69.608 157.213 69.808L157.215 69.8087C158.27 70.0975 159.678 70.7241 160.43 71.248C161.18 71.7692 162.432 73.0327 162.943 73.798C163.613 74.7716 164.203 76.0782 164.567 77.395C164.834 78.3633 164.871 78.7469 164.871 80.9107V80.9118C164.859 82.9381 164.822 83.5152 164.593 84.4801C164.464 85.0194 164.328 85.5675 164.26 85.7821L164.258 85.7818C164.517 85.8547 165.085 86.0728 165.655 86.2999H165.658L165.661 86.3011C172.076 88.9275 175.96 94.2853 176.982 101.872C177.256 103.989 177.232 107.532 176.919 109.359C176.47 111.939 175.671 114.08 174.454 115.961L174.454 115.962C172.585 118.808 169.622 120.875 166.627 121.38C166.194 121.454 165.646 121.488 165.095 121.488C164.393 121.488 163.663 121.432 163.124 121.317C160.541 120.77 158.547 118.933 157.895 116.454C157.448 114.79 157.707 112.322 158.506 110.16L158.509 110.154C158.585 109.968 158.645 109.797 158.688 109.66C158.43 109.784 157.748 110.042 157.086 110.281L157.082 110.282C154.719 111.126 152.559 111.55 150.639 111.55C148.142 111.55 146.049 110.832 144.452 109.386C143.098 108.159 142.228 106.767 141.551 104.688L141.156 103.515C141.13 103.437 141.15 103.351 141.207 103.292L142.257 102.217C143.106 101.356 143.377 100.967 143.821 100.052C144.474 98.6854 144.738 97.5452 144.738 96.1226V95.0118C144.738 94.9426 144.77 94.8772 144.826 94.8356L145.505 94.3299C147.932 92.4972 149.542 89.9147 150.051 87.0827C150.243 86.0274 150.145 83.6399 149.87 82.6357L149.87 82.6342C149.557 81.4686 148.56 79.5705 147.752 78.6067C146.013 76.5408 142.867 74.8861 139.941 74.5218L139.273 74.4352C139.182 74.4239 139.108 74.3559 139.088 74.2655L138.878 73.3142C138.129 69.8934 135.277 66.5145 131.878 65.0099C131.644 64.9071 131.455 64.8417 131.343 64.8122C131.141 65.3035 130.464 67.0387 130.276 67.5516L130.275 67.5512C130.425 67.6431 130.711 67.8048 131.056 67.9859L131.059 67.9874C133.033 69.0562 134.389 70.4214 135.288 72.2443V72.2454C135.314 72.2972 135.338 72.3478 135.362 72.4C137.254 76.4675 135.672 80.7372 131.529 82.6652L131.524 82.6671C131.046 82.8757 130.414 83.1293 130.11 83.2094L129.807 83.2903L129.922 83.8009C129.933 83.8516 129.958 83.9619 129.974 84.0341V84.033C130.066 84.4385 130.2 85.0308 130.293 85.4696L130.455 86.2183L130.637 86.179L130.64 86.1782C131.282 86.0467 132.437 85.623 133.19 85.2458C135.901 83.8905 137.667 81.8257 138.699 78.7775L139.07 77.6913C139.1 77.6017 139.184 77.5424 139.277 77.5424C139.283 77.5424 139.289 77.5428 139.295 77.5431L139.75 77.5809C140.617 77.6452 141.731 78.0031 142.952 78.5886C143.938 79.0565 144.329 79.3305 145.112 80.1265C146.595 81.622 147.152 82.9233 147.152 84.9234C147.152 87.4073 145.953 89.7227 143.708 91.6563C143.215 92.0989 142.437 92.6503 141.995 92.9152L141.991 92.9175C141.628 93.1246 141.346 93.3295 141.255 93.4168L141.254 93.4164C141.253 93.5351 141.283 93.8556 141.345 94.2184C141.546 95.2899 141.549 97.1597 141.342 98.0131C140.985 99.5321 140.123 100.73 138.905 101.321C138.204 101.664 138.001 101.689 136.623 101.689L136.62 101.689C135.248 101.676 135.019 101.65 134.107 101.277C133.242 100.933 131.708 99.9962 130.722 99.2104L130.514 99.049L129.895 99.4758C128.427 100.505 126.851 101.061 125.274 101.123L125.442 104.094C126.918 104.066 128.501 103.742 129.872 103.18L129.875 103.179C129.995 103.132 130.116 103.09 130.253 103.09C130.504 103.09 130.755 103.238 131.178 103.492C132.702 104.398 134.384 104.849 136.249 104.849C136.792 104.849 137.352 104.811 137.927 104.734L137.929 104.734L137.932 104.735V104.733C137.948 104.732 137.965 104.73 137.982 104.73C138.06 104.73 138.134 104.753 138.201 104.798C138.408 104.936 138.561 105.324 138.792 105.964C140.423 110.504 143.638 113.422 148.028 114.356L148.029 114.356C148.842 114.533 149.757 114.621 150.746 114.621C151.786 114.621 152.904 114.524 154.071 114.33L154.515 114.255C154.527 114.254 154.539 114.253 154.551 114.253C154.599 114.253 154.646 114.268 154.685 114.298C154.733 114.335 154.764 114.391 154.77 114.452L154.856 115.415L154.856 115.416C154.979 116.862 155.614 119.019 156.014 119.515C156.066 119.575 156.112 119.645 156.138 119.714C156.144 119.731 156.209 119.89 156.089 120.01C156.05 120.049 156 120.067 155.997 120.068C155.878 120.113 155.362 120.229 154.814 120.33L154.813 120.33C152.549 120.744 150.399 121.705 148.775 123.026L147.811 123.804C147.771 123.836 147.722 123.853 147.673 123.853C147.614 123.853 147.554 123.828 147.512 123.781L147.005 123.226C145.899 122.024 143.973 120.884 142.306 120.425C141.755 120.272 141.112 120.21 139.956 120.21C138.113 120.21 137.109 120.449 135.548 121.236C135.057 121.482 134.607 121.702 134.497 121.739C134.495 121.739 134.456 121.753 134.412 121.753C134.3 121.753 134.224 121.661 134.227 121.662C134.146 121.569 133.954 121.262 133.775 120.936C132.673 118.975 130.708 117.133 128.804 116.277L128.566 116.171L128.046 117.443C127.792 118.074 127.563 118.642 127.458 118.898L127.456 118.897C127.569 118.985 127.795 119.14 128.089 119.32C129.087 119.897 130.472 121.307 131.058 122.326C131.618 123.305 132.046 124.642 132.221 125.887L132.222 125.889C132.603 128.809 131.334 131.824 128.952 133.649L128.951 133.649L128.71 133.832L129.542 135.042C129.77 135.372 129.973 135.67 130.142 135.917C130.273 136.109 130.374 136.258 130.437 136.349L130.438 136.349C130.905 136.087 132.483 134.559 133.17 133.572C134.675 131.374 135.497 128.461 135.28 126.073L135.194 125.174C135.187 125.095 135.222 125.018 135.286 124.973L135.867 124.565L135.868 124.564C137.121 123.704 138.707 123.167 140.018 123.167C141.814 123.167 143.276 123.84 144.717 125.281L144.718 125.282L145.743 126.319C145.811 126.388 145.825 126.493 145.78 126.578L145.535 127.03C144.974 128.14 144.744 129.203 144.744 130.857C144.744 131.743 144.793 132.658 144.838 132.913L144.937 133.407C144.954 133.491 144.921 133.577 144.852 133.627L144.025 134.232C142.043 135.698 140.761 138.046 140.496 140.757C140.314 142.562 140.667 144.981 141.33 146.474C141.435 146.714 141.537 146.98 141.551 147.116C141.551 147.116 141.574 147.247 141.482 147.336C141.437 147.381 141.376 147.397 141.372 147.399C141.247 147.436 140.728 147.505 140.167 147.571C137.256 147.9 135.005 148.884 133.168 150.623C132.138 151.605 131.487 152.497 130.882 153.769C130.424 154.743 129.924 156.643 129.802 157.857L129.728 158.659C129.721 158.737 129.673 158.806 129.601 158.839L128.552 159.32C126.475 160.274 124.869 161.843 123.816 163.923C123.579 164.399 123.219 165.379 123.107 165.784L123.106 165.783C123.623 165.919 125.162 166.288 125.937 166.45L125.942 166.452C125.95 166.454 125.957 166.455 125.962 166.456H125.963C125.991 166.42 126.043 166.311 126.14 166.006C126.384 165.237 127.091 163.998 127.608 163.441C127.812 163.225 128.311 162.843 128.706 162.57L128.711 162.567C129.819 161.842 131.113 161.492 132.447 161.492C134.5 161.492 136.65 162.321 138.387 163.897L138.997 164.448L139.518 164.004L139.519 164.002C139.887 163.697 140.438 163.206 140.755 162.902L140.759 162.898C141.088 162.598 141.172 162.503 141.189 162.46L141.188 162.46C141.183 162.448 141.169 162.422 141.132 162.367L141.13 162.362C140.755 161.772 138.689 160.201 137.474 159.588L137.473 159.588C136.457 159.068 134.768 158.558 133.837 158.475H133.835L132.946 158.388C132.886 158.382 132.832 158.352 132.794 158.305C132.758 158.257 132.742 158.196 132.751 158.137L132.837 157.569C132.879 157.234 133.081 156.47 133.278 155.867L133.278 155.866C134.381 152.542 136.845 150.695 140.45 150.494L140.45 150.493C140.639 150.483 140.829 150.477 141.023 150.477C143.851 150.477 147.165 151.585 149.776 153.435C150.953 154.274 152.665 155.959 153.386 157.009C154.791 159.054 155.24 160.405 155.24 162.652C155.24 163.934 155.189 164.391 154.946 165.186L154.945 165.187C154.441 166.802 153.829 167.796 152.644 168.981C151.433 170.192 150.311 170.844 148.774 171.212L148.773 171.213C148.316 171.319 147.744 171.368 147.153 171.368C146.234 171.368 145.24 171.25 144.521 171.023C144.22 170.929 143.953 170.871 143.824 170.86C143.671 171.052 143.194 171.68 142.652 172.413L142.651 172.414L142.65 172.415C140.751 174.936 138.325 177.327 136.309 178.629C134.155 180.022 131.811 180.77 129.645 180.77C129.028 180.77 128.426 180.709 127.846 180.586C125.962 180.194 124.519 179.393 122.951 177.913C119.736 174.868 116.548 170.675 116.118 166.169C115.609 163.44 114.515 142.967 114.83 141.533C115.463 140.862 118.745 139.64 120.33 138.022C122.753 135.497 124.245 132.066 124.245 128.239L121.821 85.281C121.775 85.2024 121.775 85.0837 121.682 85.0051C119.677 82.6773 119.444 86.1094 119.444 87.5687V123.584C119.444 124.294 118.745 124.886 117.86 124.886C117.44 124.886 117.021 124.768 116.741 124.531C116.462 124.294 116.275 123.979 116.275 123.624V122.716C116.228 115.143 116.182 107.569 116.042 99.9947C115.949 96.2076 115.902 92.4209 115.763 88.6338C115.716 87.3714 115.995 85.6752 115.343 84.4918C114.69 83.3481 113.711 83.3874 113.246 84.6498C113.013 85.3207 113.059 86.1095 113.059 86.8586C113.059 88.5945 113.013 90.3693 113.013 92.1053C113.013 95.6165 112.919 99.1273 112.873 102.638C112.779 109.659 112.593 116.642 112.454 123.663C112.454 124.373 111.754 124.926 110.868 124.926C109.983 124.926 109.284 124.373 109.284 123.663C109.284 115.064 108.865 106.503 108.865 97.9038C108.818 95.4192 108.771 92.8945 108.725 90.409C108.678 88.9101 108.352 87.4111 108.492 85.9122C108.538 85.36 108.305 82.8352 106.907 83.4664C106.534 83.6637 106.348 84.4918 106.254 84.8078C105.975 85.7149 105.835 86.6616 105.742 87.6084C105.602 89.3837 105.789 91.1589 105.742 92.9338C105.649 96.3263 105.602 99.7581 105.556 103.19C105.462 110.054 105.369 116.879 105.229 123.742C105.229 124.452 104.53 125.004 103.645 125.004C103.225 125.004 102.806 124.847 102.526 124.61C102.246 124.373 102.06 124.058 102.06 123.703V119.285C102.06 112.618 102.2 105.991 102.2 99.3242C102.2 96.0107 102.2 92.6579 102.106 89.344C102.106 88.003 102.433 86.1488 102.013 84.8864C101.5 83.3088 100.149 84.1369 99.8696 85.2024C99.6364 86.0305 99.8231 86.9375 99.7763 87.766C99.6364 89.6202 99.5431 91.4348 99.4501 93.2494C99.0306 100.665 98.6111 108.121 98.1915 115.537C97.9587 119.798 97.4923 124.097 97.4923 128.357C97.4923 134.63 100.491 139.553 105.944 141.092C106.366 141.092 107.42 153.636 105.343 165.948C104.836 168.361 104.122 170.878 102.758 173.719C100.947 177.455 97.0807 179.65 93.7578 180.521C93.0914 180.694 92.2097 180.779 91.334 180.779C90.459 180.779 89.5719 180.694 88.8939 180.522C87.565 180.18 85.6367 179.215 84.3207 178.212C82.4328 176.798 79.0807 173.049 77.894 171.049L77.8928 171.048C77.7643 170.828 77.7114 170.817 77.7053 170.817C77.7012 170.817 77.6902 170.818 77.6698 170.825L77.663 170.826C76.2846 171.239 75.6274 171.373 74.7653 171.373C74.5661 171.373 74.3616 171.366 74.1333 171.354L74.1303 171.354C72.0134 171.24 70.3825 170.5 68.8522 168.982C68.0823 168.212 67.772 167.785 67.2916 166.825L67.2905 166.822C66.5123 165.216 66.281 164.282 66.281 162.652C66.281 161.139 66.4975 160.144 67.1408 158.769L67.1416 158.767C68.89 155.082 72.7761 152.069 77.335 150.871V150.87C78.3452 150.605 78.8702 150.542 80.3147 150.53H80.3166C80.3979 150.529 80.4886 150.529 80.5653 150.529C82.4018 150.529 83.0825 150.676 84.5104 151.354C86.4931 152.3 87.8757 154.125 88.4936 156.597C88.6501 157.207 88.7465 157.614 88.7465 157.875V157.874C88.7465 157.982 88.7306 158.092 88.6747 158.189C88.6418 158.245 88.5987 158.29 88.5469 158.326C88.4029 158.423 88.2064 158.426 88.0469 158.426C87.3273 158.426 85.3857 158.967 84.3532 159.478L84.3517 159.479C83.0009 160.135 82.0813 160.777 81.048 161.75L80.3068 162.45L80.4383 162.587L80.4406 162.589C80.5914 162.752 81.1493 163.262 81.7049 163.732H81.706L82.5579 164.448L83.0209 164.022C84.7867 162.371 86.9625 161.493 89.067 161.493C90.2084 161.493 91.3283 161.751 92.3469 162.285C93.7547 163.028 95.0447 164.606 95.4196 166.065C95.4918 166.33 95.5247 166.433 95.5474 166.476L95.5493 166.475C95.5765 166.474 95.6196 166.466 95.6951 166.45C96.264 166.335 97.9145 165.916 98.4081 165.778L98.4062 165.777C98.3476 165.482 98.111 164.759 97.8359 164.15C96.8577 162 94.7015 159.921 92.6617 159.153C91.9666 158.897 91.7663 158.814 91.7663 158.281C91.7663 158.08 91.6836 157.394 91.5724 156.75C90.8328 152.46 88.1864 149.427 84.0296 148.118L84.0278 148.118C83.1354 147.828 82.4611 147.706 80.6364 147.485L80.1299 147.423C80.0623 147.415 80.0025 147.376 79.9678 147.317C79.9334 147.258 79.9277 147.187 79.953 147.124L80.2494 146.383L80.2497 146.382C81.6334 142.996 81.3367 139.084 79.5297 136.375L79.529 136.373C78.9745 135.53 77.6762 134.236 77.0197 133.849L77.016 133.846C76.7408 133.676 76.5375 133.476 76.652 133.134C77.0662 131.643 76.9479 129.656 76.3319 127.904C76.1221 127.324 75.9244 126.756 75.8863 126.641L75.8825 126.63C75.8662 126.57 75.8704 126.513 75.8798 126.469C75.9305 126.222 76.271 125.825 76.7896 125.295C78.1649 123.9 79.7607 123.178 81.483 123.178C81.9804 123.178 82.4853 123.238 82.9974 123.358C83.8501 123.562 85.1098 124.141 85.7803 124.654L86.1874 124.951C86.2444 124.992 86.2781 125.057 86.2781 125.128V126.634C86.2781 129.622 87.15 132.105 88.9827 134.374C89.5024 135.021 90.6929 136.073 91.0818 136.315L91.0837 136.314C91.241 136.115 91.5883 135.64 91.9784 135.079L92.7887 133.896L91.843 132.95C90.0999 131.207 89.2968 129.325 89.2968 126.942C89.2968 125.451 89.5765 124.246 90.2692 122.81C90.7247 121.862 91.0233 121.434 91.8056 120.652C92.3329 120.113 93.1009 119.493 93.5053 119.259L93.5083 119.257C93.7619 119.113 93.9653 118.992 94.0775 118.918L94.0752 118.918C93.9989 118.708 93.8292 118.268 93.6228 117.766L93.6217 117.763C93.3401 117.066 93.0703 116.377 93.0049 116.21L92.9837 116.156L92.3567 116.47C90.643 117.339 88.8954 118.999 87.8413 120.817L87.8401 120.819C87.6066 121.211 87.3628 121.574 87.2608 121.675C87.2608 121.675 87.1889 121.753 87.0835 121.753C87.0423 121.753 87.0075 121.742 87 121.74C86.8975 121.708 86.6209 121.57 86.3556 121.415L86.3537 121.414C85.614 120.973 84.3426 120.511 83.3259 120.318C82.7404 120.206 82.1527 120.151 81.5688 120.151C79.0633 120.151 76.6297 121.161 74.7562 123.035L73.9904 123.812C73.9481 123.855 73.8911 123.877 73.8344 123.877C73.7818 123.877 73.7289 123.858 73.687 123.82L73.131 123.314L73.1302 123.313C71.5266 121.829 68.6454 120.55 66.1271 120.209L65.5341 120.134C65.4635 120.125 65.4015 120.083 65.3678 120.019C65.3346 119.956 65.3338 119.881 65.3663 119.817L65.6626 119.237C66.2538 118.054 66.7005 116.249 66.7005 115.077V114.459C66.7005 114.395 66.7285 114.334 66.7768 114.293C66.8169 114.259 66.8679 114.24 66.9201 114.24C66.9311 114.24 66.9424 114.241 66.953 114.243L67.5917 114.341C69.4898 114.6 69.912 114.635 70.7491 114.648L70.748 114.647C70.762 114.647 70.7646 114.647 70.7786 114.647C76.4555 114.647 81.0416 111.233 82.8867 105.624C83.016 105.215 83.121 104.923 83.2665 104.792C83.3293 104.735 83.4098 104.695 83.505 104.695C83.5515 104.695 83.5931 104.704 83.6286 104.717L83.6298 104.717C83.6332 104.719 83.6392 104.721 83.6422 104.722H83.6441C83.8603 104.807 84.5161 104.864 85.247 104.864C85.7455 104.864 86.2482 104.838 86.6201 104.784C87.8636 104.603 89.0863 104.18 90.2379 103.549L90.2405 103.548L91.1665 103.054C91.1983 103.037 91.2338 103.028 91.2697 103.028C91.2965 103.028 91.3237 103.033 91.3502 103.044L92.1027 103.34L92.1042 103.34C93.3428 103.837 94.7771 104.088 96.2428 104.088H96.2802L96.4522 101.06L96.2095 101.061C95.1025 101.061 94.7831 101.001 94.0337 100.725C93.2687 100.444 92.128 99.8027 91.1087 99.0951L91.1072 99.0948C91.0305 99.0948 90.8373 99.1964 90.1544 99.7059C88.3375 101.071 86.6009 101.75 84.8237 101.75C83.6649 101.75 83.1566 101.618 82.243 101.078L82.2415 101.077C81.3193 100.523 80.5479 99.4085 80.2524 98.213C79.9969 97.1903 79.9731 95.2574 80.2127 94.057L80.3442 93.3714L79.8506 93.0906C76.7163 91.3229 74.585 88.3379 74.3937 85.3698C74.266 83.279 74.9214 81.6001 76.4702 80.0516L76.4713 80.0501C77.2038 79.3305 77.6317 79.0194 78.5822 78.5761C79.7085 78.0383 80.7033 77.7095 81.7778 77.5458L81.7785 77.545L82.2725 77.471C82.2839 77.4695 82.2945 77.4687 82.3054 77.4687C82.4018 77.4687 82.4887 77.5322 82.5159 77.6278L82.7378 78.4053L82.7385 78.4075C83.4771 81.1057 85.4152 83.6127 87.7578 84.942C88.649 85.4359 90.5134 86.1359 91.0399 86.2198L91.0418 86.2194C91.1918 85.7319 91.6427 83.8682 91.7467 83.3368L91.7448 83.3364C91.6442 83.2899 91.4734 83.2219 91.2663 83.1573L91.2633 83.1561C88.5197 82.2627 86.4553 80.3789 85.7384 78.0617C84.5274 74.1979 86.6745 69.8873 90.7383 67.8237L90.7421 67.8222C90.9753 67.7096 91.1567 67.5977 91.2482 67.5308L91.2459 67.5304C91.0921 67.0769 90.4291 65.333 90.2012 64.7838C90.061 64.8394 89.8437 64.9316 89.5961 65.045L89.5942 65.0465C87.6916 65.9067 85.6605 67.5969 84.5104 69.2429C83.5043 70.6977 82.9589 71.9918 82.5197 73.9295C82.4241 74.3884 82.1735 74.4368 81.5828 74.5218H81.5782C80.6885 74.6303 79.1041 75.0804 78.1181 75.4947C77.2896 75.8443 76.5314 76.2683 75.8466 76.7544C71.0504 80.1571 69.8315 86.6004 73.4575 91.7107C73.9991 92.4693 75.5953 94.0646 76.3009 94.545L76.7333 94.8284C76.7949 94.8689 76.8319 94.9377 76.8319 95.0118V96.2673C76.844 96.9408 76.9177 97.7957 76.9982 98.1454C77.4079 99.7966 78.349 101.423 79.5501 102.542L80.3159 103.233C80.3771 103.289 80.4021 103.374 80.3798 103.454L80.1586 104.255C79.8419 105.445 78.7035 107.648 77.9771 108.502C76.2268 110.557 73.9893 111.517 70.9956 111.53C70.968 111.531 70.9287 111.53 70.9014 111.53C68.396 111.53 66.3029 111.043 62.8643 109.675C62.9055 109.802 62.969 109.982 63.0627 110.234C63.9105 112.541 64.1716 114.899 63.7362 116.515C63.1201 118.852 61.159 120.609 58.5719 121.193C58.0911 121.301 57.3666 121.349 56.6118 121.349C55.47 121.349 54.1997 121.239 53.5194 121.028C52.1195 120.603 51.3583 120.248 50.3019 119.544C44.1507 115.459 42.3698 103.43 46.5602 95.0737C48.7202 90.7658 52.0586 87.7392 56.4701 86.0645L56.4723 86.0637C56.8072 85.9409 57.1077 85.8245 57.2774 85.7579L57.2751 85.7576C57.2434 85.5962 57.1765 85.3086 57.0884 84.9658C56.2887 81.8163 56.4602 78.296 57.5314 75.7626L57.5317 75.7615C58.8296 72.7246 61.2784 70.5911 64.4562 69.7585C65.0855 69.5937 66.033 69.5211 67.0263 69.5211C68.4814 69.5211 70.0972 69.6772 71.0296 69.9641H71.0315C71.0643 69.6549 71.084 68.9436 71.084 67.7353C71.084 64.7661 71.2715 63.7059 72.1427 61.8755C73.3672 59.2876 75.1719 57.7728 77.8803 57.0891C78.5179 56.9296 78.9042 56.8684 79.6246 56.8684C79.9285 56.8684 80.2909 56.879 80.7573 56.8979C82.5983 56.9602 83.5818 57.1628 85.5498 57.848L85.5517 57.8484L86.1424 58.0521L86.9969 57.2641C88.7491 55.637 90.9636 54.3603 93.158 53.7083L93.1602 53.7076C93.7819 53.5288 94.7529 53.4456 95.7231 53.4456C96.795 53.4456 97.9077 53.5477 98.594 53.7582L98.5952 53.7586C98.7278 53.8002 98.8594 53.8436 98.9894 53.8897C105.3 56.1163 108.221 63.6266 105.639 70.9449C104.926 72.959 103.591 75.2664 102.13 76.9898L102.129 76.991C101.817 77.3545 101.536 77.7132 101.431 77.8546L101.429 77.8538C101.474 77.9653 101.648 78.2295 101.981 78.6196C102.991 79.8124 103.819 81.0872 104.461 82.407C104.74 81.9308 105.124 81.5196 105.712 81.2082L105.783 81.1707L105.856 81.1379C106.77 80.7255 107.791 80.6888 108.708 81.1171C109.778 81.616 110.47 82.698 110.809 83.8792ZM122.947 165.739L122.942 165.737C122.909 165.724 122.899 165.718 122.903 165.718C122.907 165.718 122.926 165.725 122.949 165.739H122.947ZM158.819 109.492C158.813 109.485 158.808 109.478 158.803 109.471L158.82 109.492H158.819ZM130.169 67.4824L130.168 67.4817C130.158 67.473 130.153 67.4685 130.153 67.4685C130.156 67.4685 130.163 67.4737 130.17 67.4824H130.169ZM131.243 64.7937C131.24 64.7937 131.241 64.7937 131.247 64.7937H131.25H131.251C131.248 64.7937 131.245 64.7937 131.245 64.7937H131.243ZM57.2936 85.9076C57.2929 85.9031 57.2929 85.8944 57.294 85.8838L57.2955 85.8846C57.2959 85.8955 57.2959 85.9035 57.2955 85.9076H57.2936ZM91.8412 83.3904C91.8389 83.3889 91.8362 83.3871 91.8321 83.3837H91.834C91.8385 83.3871 91.8412 83.3893 91.843 83.3904H91.8412ZM158.144 159.155L158.198 159.148C158.234 159.139 158.422 159.103 158.627 159.079L158.632 159.079C159.522 158.951 160.605 158.61 161.598 158.132C162.464 157.725 162.88 157.412 163.635 156.645C165.094 155.172 165.791 153.619 166.042 151.354C166.382 148.319 165.303 144.656 163.402 142.289L163.4 142.287C163.24 142.093 163.1 141.913 162.996 141.777C163.191 141.758 163.461 141.738 163.763 141.72C165.249 141.631 166.289 141.365 167.733 140.687C170.519 139.381 172.494 137.444 173.874 134.658C174.851 132.666 175.094 131.67 175.107 129.438C175.119 127.922 175.07 127.467 174.827 126.623C174.524 125.55 173.859 124.145 173.24 123.261L173.239 123.26C173.027 122.96 172.821 122.67 172.773 122.598C172.699 122.486 172.573 122.482 172.539 122.481C172.534 122.48 172.532 122.481 172.527 122.481C172.321 122.481 171.9 122.637 171.439 122.854C169.202 123.867 167.479 124.279 165.417 124.279C164.033 124.279 163.236 124.172 160.623 123.605L160.622 123.604C159.358 123.337 158.268 123.195 157.256 123.195C155.534 123.195 154.054 123.604 152.331 124.462C150.276 125.475 148.838 126.777 148.07 128.327L148.069 128.328C147.667 129.146 147.639 129.294 147.639 130.61C147.639 131.836 147.679 132.103 148.014 132.893C148.22 133.38 148.685 134.196 149.05 134.712L149.054 134.717V134.718C149.249 134.984 149.416 135.221 149.531 135.389L149.533 135.389C149.482 135.39 149.426 135.391 149.365 135.391C146.665 135.391 144.196 137.566 143.497 140.498C143.279 141.396 143.279 143.148 143.497 144.059C143.751 145.105 144.46 146.471 145.164 147.264C145.697 147.862 145.987 148.053 146.876 148.409L146.878 148.41C148.555 149.059 150.895 150.321 151.999 151.159C153.302 152.133 154.902 153.795 155.739 155.056L155.741 155.058C156.103 155.589 156.714 156.701 157.12 157.537L157.12 157.538C157.48 158.269 157.832 158.918 157.955 159.06C157.955 159.06 158.028 159.155 158.144 159.155ZM71.7242 135.357L71.7227 135.357L71.7231 135.356L71.7261 135.357H71.7242ZM63.5121 159.167C63.6421 159.167 63.723 159.036 63.723 159.029L63.7196 159.029C63.7993 158.882 64.0824 158.29 64.4018 157.609C65.3304 155.617 66.3286 154.169 67.755 152.73C69.5329 150.94 72.171 149.291 74.7097 148.4L74.7139 148.399C75.4282 148.138 75.729 147.931 76.305 147.304C77.6441 145.874 78.3539 143.802 78.2145 141.782C78.0878 139.984 77.5149 138.566 76.392 137.328C75.3397 136.173 73.6276 135.391 72.1056 135.391C72.0572 135.391 72.0111 135.39 71.9703 135.388L71.9722 135.389C72.0338 135.308 72.1105 135.213 72.1974 135.112C72.7511 134.468 73.4564 133.131 73.7236 132.228C74.1624 130.757 73.879 128.913 73.0433 127.614C72.1094 126.144 70.2374 124.773 68.2293 124.045C66.719 123.49 65.4075 123.213 63.9891 123.213C62.7921 123.213 61.5278 123.41 60.0134 123.792C58.4982 124.176 57.1855 124.365 55.9867 124.365C55.4307 124.365 54.9001 124.325 54.3834 124.245L54.3819 124.244C52.8251 124.013 51.9441 123.736 50.3431 122.99L49.1711 122.435C49.1412 122.421 49.1094 122.414 49.0777 122.414C49.015 122.414 48.9545 122.441 48.9118 122.49L48.5909 122.86L48.589 122.863C48.0349 123.519 47.2461 125.04 46.9067 126.032L46.9056 126.034C45.5688 130.097 46.7344 134.564 50.0063 137.949C52.2124 140.229 54.8676 141.53 57.7313 141.72H57.7328C58.0435 141.738 58.3183 141.761 58.514 141.783L58.5159 141.783C58.4396 141.884 58.3451 142.008 58.2404 142.142C56.9951 143.715 56.142 145.612 55.7036 147.728C55.3888 149.226 55.4247 151.633 55.7682 152.893L55.7686 152.894C56.6935 156.24 59.135 158.396 62.7316 159.028C63.133 159.1 63.469 159.163 63.472 159.164L63.5121 159.167Z" fill="#FEFEFE"/>
</g>
</svg>
