<svg xmlns="http://www.w3.org/2000/svg" width="192" height="190" fill="none" viewBox="0 0 192 190"><mask id="mask0_496_79" style="mask-type:alpha" width="170" height="168" x="11" y="11" maskUnits="userSpaceOnUse"><ellipse cx="95.766" cy="95" fill="#D9D9D9" rx="84.766" ry="84"/></mask><g mask="url(#mask0_496_79)"><path fill="#DAC333" fill-rule="evenodd" d="M162.852 1.01855H978.251L978.251 149.523C978.251 171.344 960.39 189.208 938.569 189.205L123.17 189.083V40.7006C123.17 18.8749 141.026 1.01855 162.852 1.01855Z" clip-rule="evenodd"/><path fill="#0F4E0B" d="M279.454 112.292V120.005H236.261V113.904L266.069 78.6349H236.768V70.9217H278.513V77.0222L248.705 112.292H279.454ZM300.942 70.9217H310.348V112.292H336.827V120.005H300.942V70.9217ZM293.128 98.6887L318.089 80.3883L321.923 85.1557L296.962 103.527L293.128 98.6887ZM379.152 120.706C373.991 120.706 369.337 119.619 365.188 117.445C361.04 115.272 357.784 112.256 355.421 108.4C353.058 104.544 351.876 100.232 351.876 95.4636C351.876 90.6954 353.058 86.3833 355.421 82.5263C357.784 78.6701 361.04 75.6548 365.188 73.4812C369.337 71.3076 373.991 70.2209 379.152 70.2209C384.313 70.2209 388.967 71.3076 393.115 73.4812C397.263 75.6548 400.519 78.6584 402.882 82.4912C405.246 86.3247 406.427 90.6485 406.427 95.4636C406.427 100.278 405.246 104.602 402.882 108.435C400.519 112.268 397.263 115.272 393.115 117.445C388.967 119.619 384.313 120.706 379.152 120.706ZM379.152 112.712C382.528 112.712 385.567 111.976 388.268 110.504C390.969 109.031 393.091 106.975 394.634 104.333C396.178 101.692 396.95 98.7352 396.95 95.4636C396.95 92.1913 396.178 89.2342 394.634 86.5935C393.091 83.9523 390.969 81.8955 388.268 80.423C385.567 78.9501 382.528 78.2143 379.152 78.2143C375.775 78.2143 372.737 78.9501 370.036 80.423C367.334 81.8955 365.212 83.9523 363.669 86.5935C362.126 89.2342 361.354 92.1913 361.354 95.4636C361.354 98.7352 362.126 101.692 363.669 104.333C365.212 106.975 367.334 109.031 370.036 110.504C372.737 111.976 375.775 112.712 379.152 112.712ZM438.117 78.6349H421.332V70.9217H464.307V78.6349H447.522V120.005H438.117V78.6349ZM504.678 102.686V120.005H495.273V102.826L475.376 70.9217H485.433L500.265 94.8325L515.241 70.9217H524.502L504.678 102.686ZM578.475 120.706C574.568 120.706 570.794 120.169 567.152 119.093C563.51 118.018 560.629 116.592 558.506 114.816L561.762 107.734C563.836 109.323 566.38 110.621 569.395 111.626C572.409 112.631 575.436 113.133 578.475 113.133C582.237 113.133 585.046 112.549 586.903 111.38C588.76 110.212 589.689 108.669 589.689 106.752C589.689 105.35 589.17 104.193 588.133 103.282C587.096 102.37 585.782 101.657 584.191 101.143C582.599 100.629 580.428 100.044 577.679 99.3902C573.82 98.5016 570.697 97.6138 568.309 96.7256C565.922 95.8371 563.872 94.447 562.16 92.5534C560.447 90.6602 559.591 88.1008 559.591 84.8757C559.591 82.1643 560.351 79.6985 561.87 77.478C563.39 75.2575 565.681 73.4933 568.744 72.184C571.807 70.8752 575.557 70.2209 579.994 70.2209C583.081 70.2209 586.12 70.5947 589.11 71.3427C592.101 72.0903 594.681 73.1656 596.851 74.5682L593.885 81.6499C591.666 80.3883 589.351 79.4298 586.939 78.7752C584.528 78.1205 582.189 77.7936 579.922 77.7936C576.208 77.7936 573.447 78.4014 571.638 79.6165C569.829 80.832 568.924 82.4447 568.924 84.4547C568.924 85.8572 569.443 87.0024 570.48 87.8906C571.517 88.7788 572.831 89.4799 574.423 89.9939C576.015 90.5083 578.185 91.0926 580.935 91.7473C584.697 92.5886 587.784 93.465 590.195 94.3767C592.607 95.2879 594.669 96.6788 596.381 98.5485C598.094 100.418 598.95 102.943 598.95 106.121C598.95 108.833 598.19 111.287 596.671 113.484C595.151 115.681 592.848 117.434 589.762 118.743C586.674 120.051 582.912 120.706 578.475 120.706ZM583.105 57.3192H593.741L581.151 66.9252H573.338L583.105 57.3192ZM653.574 120.005L643.228 105.63C642.794 105.677 642.142 105.701 641.274 105.701H629.843V120.005H620.437V70.9217H641.274C645.663 70.9217 649.486 71.6232 652.742 73.0254C655.997 74.4276 658.494 76.4379 660.23 79.0556C661.966 81.6737 662.834 84.782 662.834 88.3816C662.834 92.0746 661.906 95.2531 660.049 97.9177C658.192 100.582 655.527 102.569 652.054 103.878L663.702 120.005H653.574ZM653.357 88.3816C653.357 85.2495 652.296 82.8423 650.174 81.1593C648.051 79.4763 644.94 78.6349 640.84 78.6349H629.843V98.1978H640.84C644.94 98.1978 648.051 97.3447 650.174 95.6387C652.296 93.9326 653.357 91.5133 653.357 88.3816ZM709.138 120.706C703.977 120.706 699.323 119.619 695.175 117.445C691.027 115.272 687.771 112.256 685.407 108.4C683.044 104.544 681.862 100.232 681.862 95.4636C681.862 90.6954 683.044 86.3833 685.407 82.5263C687.771 78.6701 691.027 75.6548 695.175 73.4812C699.323 71.3076 703.977 70.2209 709.138 70.2209C714.299 70.2209 718.953 71.3076 723.102 73.4812C727.25 75.6548 730.505 78.6584 732.869 82.4912C735.233 86.3247 736.414 90.6485 736.414 95.4636C736.414 100.278 735.233 104.602 732.869 108.435C730.505 112.268 727.25 115.272 723.102 117.445C718.953 119.619 714.299 120.706 709.138 120.706ZM709.138 112.712C712.514 112.712 715.553 111.976 718.254 110.504C720.955 109.031 723.078 106.975 724.621 104.333C726.164 101.692 726.936 98.7352 726.936 95.4636C726.936 92.1913 726.164 89.2342 724.621 86.5935C723.078 83.9523 720.955 81.8955 718.254 80.423C715.553 78.9501 712.514 78.2143 709.138 78.2143C705.762 78.2143 702.723 78.9501 700.022 80.423C697.321 81.8955 695.199 83.9523 693.655 86.5935C692.112 89.2342 691.34 92.1913 691.34 95.4636C691.34 98.7352 692.112 101.692 693.655 104.333C695.199 106.975 697.321 109.031 700.022 110.504C702.723 111.976 705.762 112.712 709.138 112.712ZM758.553 70.9217H780.692C786.094 70.9217 790.893 71.9384 795.09 73.9721C799.286 76.0055 802.542 78.8806 804.857 82.5966C807.172 86.313 808.33 90.602 808.33 95.4636C808.33 100.324 807.172 104.614 804.857 108.33C802.542 112.046 799.286 114.921 795.09 116.955C790.893 118.988 786.094 120.005 780.692 120.005H758.553V70.9217ZM780.258 112.292C783.972 112.292 787.24 111.602 790.061 110.223C792.883 108.844 795.053 106.881 796.573 104.333C798.092 101.786 798.852 98.8289 798.852 95.4636C798.852 92.0976 798.092 89.1413 796.573 86.5935C795.053 84.0461 792.883 82.0826 790.061 80.7035C787.24 79.3243 783.972 78.6349 780.258 78.6349H767.959V112.292H780.258ZM868.452 112.362V120.005H830.469V70.9217H867.439V78.5646H839.874V91.3266H864.328V98.8289H839.874V112.362H868.452ZM908.534 99.4601L900.503 107.454V120.005H891.097V70.9217H900.503V96.0945L925.536 70.9217H936.099L914.828 92.869L937.401 120.005H926.404L908.534 99.4601Z"/><path fill="#0F4E0B" fill-rule="evenodd" d="M41.3144 1.01855H189.82L189.819 149.523C189.819 171.346 171.96 189.224 150.137 189.205L1.63232 189.083V40.7006C1.63232 18.8749 19.4887 1.01855 41.3144 1.01855Z" clip-rule="evenodd"/><path fill="#FEFEFE" fill-rule="evenodd" d="M128.765 148.859C128.765 148.859 128.766 148.858 128.772 148.857C128.772 148.857 128.773 148.857 128.776 148.857C128.771 148.858 128.767 148.859 128.767 148.859H128.765ZM95.8095 61.8792C95.817 61.8565 95.8246 61.8338 95.8325 61.8111L95.8488 61.765C96.9554 58.7682 100.189 58.2633 102.056 60.4921C102.696 59.181 103.524 57.9091 104.549 56.66L105.193 55.8727L105.03 55.7287L105.025 55.7231C104.521 55.2453 103.076 53.2732 102.37 52.0962C101.544 50.7072 100.832 48.9963 100.395 47.348C100.066 46.1223 100.041 45.8521 100.054 43.5983C100.054 41.5256 100.09 41.0279 100.335 40.1801C101.349 36.4985 103.485 33.8007 106.539 32.3622C107.991 31.6668 108.845 31.4766 110.583 31.4766C110.638 31.4766 110.7 31.4766 110.757 31.4774L110.756 31.477C111.91 31.477 112.637 31.5382 113.27 31.7068C115.557 32.31 117.6 33.4779 119.743 35.4104L120.46 36.0506L121.003 35.8492C122.679 35.2116 123.9 34.9598 125.764 34.8979C126.199 34.8793 126.558 34.8691 126.865 34.8691C127.583 34.8691 128.029 34.9228 128.571 35.0377L128.573 35.0385C131.034 35.5967 133.163 37.282 134.278 39.5637C135.298 41.6659 135.747 44.3746 135.51 46.953L135.509 46.9557C135.465 47.3794 135.436 47.7513 135.42 47.9841L135.422 47.9837C135.626 47.941 135.928 47.8752 136.265 47.7944L136.267 47.7936C137.098 47.6054 138.208 47.512 139.288 47.512C140.384 47.512 141.471 47.608 142.213 47.808L142.215 47.8087C143.27 48.0975 144.678 48.7241 145.43 49.248C146.18 49.7692 147.432 51.0327 147.943 51.798C148.613 52.7716 149.203 54.0782 149.567 55.395C149.834 56.3633 149.871 56.7469 149.871 58.9107V58.9118C149.859 60.9381 149.822 61.5152 149.593 62.4801C149.464 63.0194 149.328 63.5675 149.26 63.7821L149.258 63.7818C149.517 63.8547 150.085 64.0728 150.655 64.2999H150.658L150.661 64.3011C157.076 66.9275 160.96 72.2853 161.982 79.8723C162.256 81.9893 162.232 85.5318 161.919 87.3592C161.47 89.9395 160.671 92.0802 159.454 93.9609L159.454 93.9624C157.585 96.8084 154.622 98.8747 151.627 99.3804C151.194 99.4537 150.646 99.4885 150.095 99.4885C149.393 99.4885 148.663 99.4318 148.124 99.3173C145.541 98.7704 143.547 96.9331 142.895 94.4538C142.448 92.7896 142.707 90.322 143.506 88.1601L143.509 88.154C143.585 87.9677 143.645 87.7973 143.688 87.6604C143.43 87.7837 142.748 88.0418 142.086 88.2814L142.082 88.2822C139.719 89.1261 137.559 89.5502 135.639 89.5502C133.142 89.5502 131.049 88.8317 129.452 87.3861C128.098 86.1592 127.228 84.7672 126.551 82.6881L126.156 81.5149C126.13 81.4367 126.15 81.3505 126.207 81.2919L127.257 80.217C128.106 79.3557 128.377 78.9668 128.821 78.0525C129.474 76.6854 129.738 75.5452 129.738 74.1226V73.0118C129.738 72.9426 129.77 72.8772 129.826 72.8356L130.505 72.3299C132.932 70.4972 134.542 67.9147 135.051 65.0827C135.243 64.0274 135.145 61.6399 134.87 60.6357L134.87 60.6342C134.557 59.4686 133.56 57.5705 132.752 56.6067C131.013 54.5408 127.867 52.8861 124.941 52.5218L124.273 52.4352C124.182 52.4239 124.108 52.3559 124.088 52.2655L123.878 51.3142C123.129 47.8934 120.277 44.5145 116.878 43.0099C116.644 42.9071 116.455 42.8417 116.343 42.8122C116.141 43.3035 115.464 45.0387 115.276 45.5516L115.275 45.5512C115.425 45.6431 115.711 45.8048 116.056 45.9859L116.059 45.9874C118.033 47.0562 119.389 48.4214 120.288 50.2443V50.2454C120.314 50.2972 120.338 50.3478 120.362 50.4C122.254 54.4675 120.672 58.7372 116.529 60.6652L116.524 60.6671C116.046 60.8757 115.414 61.1293 115.11 61.2094L114.807 61.2903L114.922 61.8009C114.933 61.8516 114.958 61.9619 114.974 62.0341V62.033C115.066 62.4385 115.2 63.0308 115.293 63.4696L115.455 64.2183L115.637 64.179L115.64 64.1782C116.282 64.0467 117.437 63.623 118.19 63.2458C120.901 61.8905 122.667 59.8257 123.699 56.7775L124.07 55.6913C124.1 55.6017 124.184 55.5424 124.277 55.5424C124.283 55.5424 124.289 55.5428 124.295 55.5431L124.75 55.5809C125.617 55.6452 126.731 56.0031 127.952 56.5886C128.938 57.0565 129.329 57.3305 130.112 58.1265C131.595 59.622 132.152 60.9233 132.152 62.9234C132.152 65.4073 130.953 67.7227 128.708 69.6563C128.215 70.0989 127.437 70.6503 126.995 70.9152L126.991 70.9175C126.628 71.1246 126.346 71.3295 126.255 71.4168L126.254 71.4164C126.253 71.5351 126.283 71.8556 126.345 72.2184C126.546 73.2899 126.549 75.1597 126.342 76.0131C125.985 77.5321 125.123 78.7302 123.905 79.3213C123.204 79.6645 123.001 79.6887 121.623 79.689L121.62 79.6887C120.248 79.6762 120.019 79.6497 119.107 79.2775C118.242 78.9331 116.708 77.9962 115.722 77.2104L115.514 77.049L114.895 77.4758C113.427 78.5053 111.851 79.0613 110.274 79.1229L110.442 82.0943C111.918 82.066 113.501 81.7417 114.872 81.1805L114.875 81.1793C114.995 81.1321 115.116 81.0901 115.253 81.0901C115.504 81.0901 115.755 81.2375 116.178 81.4919C117.702 82.3982 119.384 82.8491 121.249 82.8491C121.792 82.8491 122.352 82.8106 122.927 82.7342L122.929 82.7338L122.932 82.7346V82.7335C122.948 82.7316 122.965 82.7304 122.982 82.7304C123.06 82.7304 123.134 82.7535 123.201 82.7981C123.408 82.9357 123.561 83.3242 123.792 83.9637C125.423 88.504 128.638 91.4222 133.028 92.3557L133.029 92.3561C133.842 92.533 134.757 92.6211 135.746 92.6211C136.786 92.6211 137.904 92.5236 139.071 92.3301L139.515 92.2552C139.527 92.2537 139.539 92.2526 139.551 92.2526C139.599 92.2526 139.646 92.2681 139.685 92.2979C139.733 92.3353 139.764 92.3913 139.77 92.4517L139.856 93.4152L139.856 93.4163C139.979 94.8623 140.614 97.0189 141.014 97.5152C141.066 97.5753 141.112 97.6448 141.138 97.714C141.144 97.731 141.209 97.8901 141.089 98.0099C141.05 98.0489 141 98.0666 140.997 98.0678C140.878 98.1135 140.362 98.2291 139.814 98.3297L139.813 98.3301C137.549 98.7443 135.399 99.705 133.775 101.026L132.811 101.804C132.771 101.836 132.722 101.853 132.673 101.853C132.614 101.853 132.554 101.828 132.512 101.781L132.005 101.226C130.899 100.024 128.973 98.8837 127.306 98.4249C126.755 98.2722 126.112 98.2102 124.956 98.2102C123.113 98.2102 122.109 98.4495 120.548 99.2364C120.057 99.4817 119.607 99.7016 119.497 99.7387C119.495 99.7394 119.456 99.7534 119.412 99.7534C119.3 99.7534 119.224 99.6612 119.227 99.6619C119.146 99.569 118.954 99.2617 118.775 98.9363C117.673 96.9747 115.708 95.1329 113.804 94.2773L113.566 94.1714L113.046 95.4433C112.792 96.0744 112.563 96.6421 112.458 96.8976L112.456 96.8969C112.569 96.9849 112.795 97.1395 113.089 97.3198C114.087 97.8965 115.472 99.3071 116.058 100.326C116.618 101.305 117.046 102.642 117.221 103.887L117.222 103.889C117.603 106.809 116.334 109.824 113.952 111.649L113.951 111.649L113.71 111.832L114.542 113.042C114.77 113.372 114.973 113.67 115.142 113.917C115.273 114.109 115.374 114.258 115.437 114.349L115.438 114.349C115.905 114.087 117.483 112.559 118.17 111.572C119.675 109.374 120.497 106.461 120.28 104.073L120.194 103.174C120.187 103.095 120.222 103.018 120.286 102.973L120.867 102.565L120.868 102.564C122.121 101.704 123.707 101.167 125.018 101.167C126.814 101.167 128.276 101.84 129.717 103.281L129.718 103.282L130.743 104.319C130.811 104.388 130.825 104.493 130.78 104.578L130.535 105.03C129.974 106.14 129.744 107.203 129.744 108.857C129.744 109.743 129.793 110.658 129.838 110.913L129.937 111.407C129.954 111.491 129.921 111.577 129.852 111.627L129.025 112.232C127.043 113.698 125.761 116.046 125.496 118.757C125.314 120.562 125.667 122.981 126.33 124.474C126.435 124.714 126.537 124.98 126.551 125.116C126.551 125.116 126.574 125.247 126.482 125.336C126.437 125.381 126.376 125.397 126.372 125.399C126.247 125.436 125.728 125.505 125.167 125.571C122.256 125.9 120.005 126.884 118.168 128.623C117.138 129.605 116.487 130.497 115.882 131.769C115.424 132.743 114.924 134.643 114.802 135.857L114.728 136.659C114.721 136.737 114.673 136.806 114.601 136.839L113.552 137.32C111.475 138.274 109.869 139.843 108.816 141.923C108.579 142.399 108.219 143.379 108.107 143.784L108.106 143.783C108.623 143.919 110.162 144.288 110.937 144.45L110.942 144.452C110.95 144.454 110.957 144.455 110.962 144.456H110.963C110.991 144.419 111.043 144.311 111.14 144.006C111.384 143.237 112.091 141.998 112.608 141.441C112.812 141.225 113.311 140.843 113.706 140.57L113.711 140.567C114.819 139.842 116.113 139.492 117.447 139.492C119.5 139.492 121.65 140.321 123.387 141.897L123.997 142.448L124.518 142.004L124.519 142.002C124.887 141.697 125.438 141.206 125.755 140.902L125.759 140.898C126.088 140.598 126.172 140.503 126.189 140.46L126.188 140.46C126.183 140.448 126.169 140.422 126.132 140.367L126.13 140.362C125.755 139.772 123.689 138.201 122.474 137.588L122.473 137.588C121.457 137.068 119.768 136.558 118.837 136.475H118.835L117.946 136.388C117.886 136.382 117.832 136.352 117.794 136.305C117.758 136.257 117.742 136.196 117.751 136.137L117.837 135.569C117.879 135.234 118.081 134.47 118.278 133.867L118.278 133.866C119.381 130.542 121.845 128.695 125.45 128.494L125.45 128.493C125.639 128.483 125.829 128.477 126.023 128.477C128.851 128.477 132.165 129.585 134.776 131.435C135.953 132.274 137.665 133.959 138.386 135.009C139.791 137.054 140.24 138.405 140.24 140.652C140.24 141.934 140.189 142.391 139.946 143.186L139.945 143.187C139.441 144.802 138.829 145.796 137.644 146.981C136.433 148.192 135.311 148.844 133.774 149.212L133.773 149.213C133.316 149.319 132.744 149.368 132.153 149.368C131.234 149.368 130.24 149.25 129.521 149.023C129.22 148.929 128.953 148.871 128.824 148.86C128.671 149.052 128.194 149.68 127.652 150.413L127.651 150.414L127.65 150.415C125.751 152.936 123.325 155.327 121.309 156.629C119.155 158.022 116.811 158.77 114.645 158.77C114.028 158.77 113.426 158.709 112.846 158.586C110.962 158.194 109.519 157.393 107.951 155.913C104.736 152.868 101.548 148.675 101.118 144.169C100.609 141.44 99.5146 120.967 99.8301 119.533C100.463 118.862 103.745 117.64 105.33 116.022C107.753 113.497 109.245 110.066 109.245 106.239L106.821 63.281C106.775 63.2024 106.775 63.0837 106.682 63.0051C104.677 60.6773 104.444 64.1095 104.444 65.5687V101.584C104.444 102.294 103.745 102.886 102.86 102.886C102.44 102.886 102.021 102.768 101.741 102.531C101.462 102.294 101.275 101.979 101.275 101.624V100.716C101.228 93.1426 101.182 85.5689 101.042 77.9947C100.949 74.2076 100.902 70.4209 100.763 66.6338C100.716 65.3714 100.995 63.6752 100.343 62.4918C99.6903 61.3481 98.7114 61.3874 98.2458 62.6498C98.0126 63.3207 98.0594 64.1095 98.0594 64.8586C98.0594 66.5945 98.0126 68.3693 98.0126 70.1053C98.0126 73.6165 97.9192 77.1273 97.8727 80.6377C97.7794 87.6593 97.593 94.6416 97.4536 101.663C97.4536 102.373 96.754 102.926 95.8684 102.926C94.9833 102.926 94.2841 102.373 94.2841 101.663C94.2841 93.0637 93.8645 84.5034 93.8645 75.9038C93.818 73.4192 93.7712 70.8945 93.7247 68.409C93.6782 66.9101 93.3516 65.4111 93.4919 63.9122C93.5384 63.36 93.3052 60.8352 91.9071 61.4664C91.5344 61.6637 91.3477 62.4918 91.2544 62.8078C90.9751 63.7149 90.8353 64.6616 90.7419 65.6084C90.6021 67.3837 90.7888 69.1589 90.7419 70.9338C90.6485 74.3263 90.602 77.7581 90.5556 81.1903C90.4622 88.0539 90.3692 94.8786 90.2294 101.742C90.2294 102.452 89.5302 103.004 88.6446 103.004C88.2251 103.004 87.8056 102.847 87.5263 102.61C87.2462 102.373 87.0599 102.058 87.0599 101.703V97.2846C87.0599 90.6179 87.1997 83.9909 87.1997 77.3242C87.1997 74.0107 87.1997 70.6579 87.1064 67.344C87.1064 66.003 87.4325 64.1488 87.0134 62.8864C86.5005 61.3088 85.1489 62.1369 84.8696 63.2024C84.6364 64.0305 84.8231 64.9375 84.7763 65.766C84.6364 67.6202 84.5431 69.4348 84.4501 71.2494C84.0306 78.6652 83.6111 86.121 83.1915 93.5372C82.9587 97.7975 82.4923 102.097 82.4923 106.357C82.4923 112.63 85.4914 117.553 90.9441 119.092C91.3655 119.092 92.4196 131.636 90.3431 143.948C89.8359 146.361 89.1223 148.878 87.7583 151.719C85.9472 155.455 82.0807 157.65 78.7578 158.521C78.0914 158.694 77.2097 158.779 76.334 158.779C75.459 158.779 74.5719 158.694 73.8939 158.522C72.565 158.18 70.6367 157.215 69.3207 156.212C67.4328 154.798 64.0807 151.049 62.894 149.049L62.8928 149.048C62.7643 148.828 62.7114 148.817 62.7053 148.817C62.7012 148.817 62.6902 148.818 62.6698 148.825L62.663 148.826C61.2846 149.239 60.6274 149.373 59.7653 149.373C59.5661 149.373 59.3616 149.366 59.1333 149.354L59.1303 149.354C57.0134 149.24 55.3825 148.5 53.8522 146.982C53.0823 146.212 52.772 145.785 52.2916 144.825L52.2905 144.822C51.5123 143.216 51.281 142.282 51.281 140.652C51.281 139.139 51.4975 138.144 52.1408 136.769L52.1416 136.767C53.89 133.082 57.7761 130.069 62.335 128.871V128.87C63.3452 128.605 63.8702 128.542 65.3147 128.53H65.3166C65.3979 128.529 65.4886 128.529 65.5653 128.529C67.4018 128.529 68.0825 128.676 69.5104 129.354C71.4931 130.3 72.8757 132.125 73.4936 134.597C73.6501 135.207 73.7465 135.614 73.7465 135.875V135.874C73.7465 135.982 73.7306 136.092 73.6747 136.189C73.6418 136.245 73.5987 136.29 73.5469 136.326C73.4029 136.423 73.2064 136.426 73.0469 136.426C72.3273 136.426 70.3857 136.967 69.3532 137.478L69.3517 137.479C68.0009 138.135 67.0813 138.777 66.048 139.75L65.3068 140.45L65.4383 140.587L65.4406 140.589C65.5914 140.752 66.1493 141.262 66.7049 141.732H66.706L67.5579 142.448L68.0209 142.022C69.7867 140.371 71.9625 139.493 74.067 139.493C75.2084 139.493 76.3283 139.751 77.3469 140.285C78.7547 141.028 80.0447 142.606 80.4196 144.065C80.4918 144.33 80.5247 144.433 80.5474 144.476L80.5493 144.475C80.5765 144.474 80.6196 144.466 80.6951 144.45C81.264 144.335 82.9145 143.916 83.4081 143.778L83.4062 143.777C83.3476 143.482 83.111 142.759 82.8359 142.15C81.8577 140 79.7015 137.921 77.6617 137.153C76.9667 136.897 76.7663 136.814 76.7663 136.281C76.7663 136.08 76.6835 135.394 76.5724 134.75C75.8328 130.46 73.1864 127.427 69.0296 126.118L69.0278 126.118C68.1354 125.828 67.4611 125.706 65.6364 125.485L65.1299 125.423C65.0623 125.415 65.0025 125.376 64.9678 125.317C64.9334 125.258 64.9277 125.187 64.953 125.124L65.2494 124.383L65.2497 124.382C66.6334 120.996 66.3367 117.084 64.5297 114.375L64.529 114.373C63.9745 113.53 62.6762 112.236 62.0197 111.849L62.016 111.846C61.7408 111.676 61.5375 111.476 61.652 111.134C62.0662 109.643 61.9479 107.656 61.3319 105.904C61.1221 105.324 60.9244 104.756 60.8863 104.641L60.8825 104.63C60.8662 104.57 60.8704 104.513 60.8798 104.469C60.9305 104.222 61.271 103.825 61.7896 103.295C63.1649 101.9 64.7607 101.178 66.483 101.178C66.9804 101.178 67.4853 101.238 67.9974 101.358C68.8501 101.562 70.1098 102.141 70.7803 102.654L71.1874 102.951C71.2444 102.992 71.2781 103.057 71.2781 103.128V104.634C71.2781 107.622 72.15 110.105 73.9827 112.374C74.5024 113.021 75.6929 114.073 76.0818 114.315L76.0837 114.314C76.241 114.115 76.5883 113.64 76.9784 113.079L77.7887 111.896L76.843 110.95C75.0999 109.207 74.2968 107.325 74.2968 104.942C74.2968 103.451 74.5765 102.246 75.2692 100.81C75.7247 99.8623 76.0233 99.4341 76.8056 98.6521C77.3329 98.1127 78.1009 97.4933 78.5053 97.2586L78.5083 97.2567C78.7619 97.1134 78.9653 96.9917 79.0775 96.9184L79.0752 96.918C78.9989 96.7082 78.8292 96.2675 78.6228 95.766L78.6217 95.7626C78.3401 95.0657 78.0703 94.3774 78.0049 94.2096L77.9837 94.1559L77.3567 94.47C75.643 95.3389 73.8954 96.9993 72.8413 98.8172L72.8401 98.8191C72.6066 99.2114 72.3628 99.5739 72.2608 99.6748C72.2608 99.6748 72.1889 99.7534 72.0835 99.7534C72.0423 99.7534 72.0075 99.7417 72 99.7398C71.8975 99.7077 71.6209 99.5697 71.3556 99.4152L71.3537 99.414C70.614 98.9726 69.3426 98.5111 68.3259 98.3179C67.7404 98.2061 67.1527 98.1509 66.5688 98.1509C64.0633 98.1509 61.6297 99.1612 59.7562 101.035L58.9904 101.812C58.9481 101.855 58.8911 101.877 58.8344 101.877C58.7818 101.877 58.7289 101.858 58.687 101.82L58.131 101.314L58.1302 101.313C56.5266 99.8294 53.6454 98.5496 51.1271 98.2091L50.5341 98.1343C50.4635 98.1252 50.4015 98.0829 50.3678 98.0194C50.3346 97.9563 50.3338 97.8807 50.3663 97.8172L50.6626 97.2374C51.2538 96.0544 51.7005 94.2485 51.7005 93.0769V92.4589C51.7005 92.3951 51.7285 92.3342 51.7768 92.2926C51.8169 92.2586 51.8679 92.2401 51.9201 92.2401C51.9311 92.2401 51.9424 92.2409 51.953 92.2427L52.5917 92.3414C54.4898 92.5999 54.912 92.6354 55.7491 92.6479L55.748 92.6471C55.762 92.6471 55.7646 92.6471 55.7786 92.6471C61.4555 92.6471 66.0415 89.2331 67.8867 83.6243C68.016 83.215 68.121 82.9228 68.2665 82.7917C68.3293 82.7346 68.4098 82.6953 68.505 82.6953C68.5515 82.6953 68.5931 82.7043 68.6286 82.7168L68.6298 82.7172C68.6332 82.7187 68.6392 82.721 68.6422 82.7221H68.6441C68.8603 82.8068 69.5161 82.8642 70.247 82.8642C70.7455 82.8642 71.2482 82.8378 71.6201 82.7845C72.8636 82.6031 74.0863 82.1797 75.2379 81.5493L75.2405 81.5478L76.1665 81.0542C76.1983 81.0368 76.2338 81.0281 76.2697 81.0281C76.2965 81.0281 76.3237 81.0334 76.3502 81.0436L77.1027 81.3399L77.1042 81.3403C78.3428 81.8373 79.7771 82.0883 81.2428 82.0883H81.2802L81.4522 79.0601L81.2095 79.0609C80.1025 79.0609 79.7831 79.0008 79.0337 78.7245C78.2687 78.4437 77.128 77.8027 76.1087 77.0951L76.1072 77.0948C76.0305 77.0948 75.8373 77.1964 75.1544 77.7059C73.3375 79.0715 71.6009 79.7503 69.8237 79.7503C68.6649 79.7503 68.1566 79.6184 67.243 79.0775L67.2415 79.0768C66.3193 78.5234 65.5479 77.4085 65.2524 76.213C64.9969 75.1903 64.9731 73.2574 65.2127 72.057L65.3442 71.3714L64.8506 71.0906C61.7163 69.3229 59.585 66.3379 59.3937 63.3698C59.266 61.279 59.9214 59.6001 61.4702 58.0516L61.4713 58.0501C62.2038 57.3305 62.6317 57.0194 63.5822 56.5761C64.7085 56.0383 65.7033 55.7095 66.7778 55.5458L66.7785 55.545L67.2725 55.471C67.2839 55.4695 67.2944 55.4687 67.3054 55.4687C67.4018 55.4687 67.4887 55.5322 67.5159 55.6278L67.7378 56.4053L67.7385 56.4075C68.4771 59.1057 70.4152 61.6127 72.7578 62.942C73.649 63.4359 75.5134 64.1359 76.0399 64.2198L76.0418 64.2194C76.1918 63.7319 76.6427 61.8682 76.7467 61.3368L76.7448 61.3364C76.6442 61.2899 76.4734 61.2219 76.2663 61.1573L76.2633 61.1561C73.5197 60.2626 71.4553 58.3789 70.7384 56.0617C69.5274 52.1979 71.6745 47.8873 75.7383 45.8237L75.7421 45.8222C75.9753 45.7096 76.1567 45.5977 76.2482 45.5308L76.2459 45.5304C76.0921 45.0769 75.4291 43.333 75.2012 42.7838C75.061 42.8394 74.8437 42.9316 74.5961 43.045L74.5942 43.0465C72.6916 43.9067 70.6605 45.5969 69.5104 47.2429C68.5043 48.6977 67.9589 49.9918 67.5197 51.9295C67.4241 52.3884 67.1735 52.4368 66.5828 52.5218H66.5782C65.6885 52.6303 64.1041 53.0804 63.1181 53.4947C62.2896 53.8443 61.5314 54.2683 60.8466 54.7544C56.0504 58.1571 54.8315 64.6004 58.4575 69.7107C58.9991 70.4693 60.5952 72.0646 61.3009 72.545L61.7333 72.8284C61.7949 72.8689 61.8319 72.9377 61.8319 73.0118V74.2673C61.844 74.9408 61.9177 75.7957 61.9982 76.1454C62.4079 77.7966 63.349 79.4233 64.5501 80.5421L65.3159 81.233C65.3771 81.2889 65.4021 81.3743 65.3798 81.4545L65.1586 82.2546C64.8419 83.4448 63.7035 85.6479 62.9771 86.5016C61.2268 88.557 58.9893 89.5173 55.9956 89.5302C55.968 89.5306 55.9287 89.5302 55.9014 89.5302C53.396 89.5302 51.3029 89.0434 47.8643 87.6752C47.9055 87.8018 47.969 87.9821 48.0627 88.2342C48.9105 90.5408 49.1716 92.8992 48.7362 94.5154C48.1201 96.8523 46.159 98.609 43.5719 99.1925C43.0911 99.3014 42.3666 99.3494 41.6118 99.3494C40.47 99.3494 39.1997 99.239 38.5194 99.0278C37.1195 98.6029 36.3583 98.248 35.3019 97.5443C29.1507 93.4594 27.3698 81.4295 31.5602 73.0737C33.7202 68.7658 37.0586 65.7392 41.4701 64.0645L41.4723 64.0637C41.8072 63.9409 42.1077 63.8245 42.2774 63.7579L42.2751 63.7576C42.2434 63.5962 42.1765 63.3086 42.0884 62.9658C41.2887 59.8163 41.4602 56.296 42.5314 53.7626L42.5317 53.7615C43.8296 50.7246 46.2784 48.5911 49.4562 47.7585C50.0855 47.5937 51.033 47.5211 52.0263 47.5211C53.4814 47.5211 55.0972 47.6772 56.0296 47.9641H56.0315C56.0643 47.6549 56.084 46.9436 56.084 45.7353C56.084 42.7661 56.2715 41.7059 57.1427 39.8755C58.3672 37.2876 60.1719 35.7728 62.8803 35.0891C63.5179 34.9296 63.9042 34.8684 64.6246 34.8684C64.9285 34.8684 65.2909 34.879 65.7573 34.8979C67.5983 34.9602 68.5818 35.1628 70.5498 35.848L70.5517 35.8484L71.1424 36.0521L71.9969 35.2641C73.7491 33.637 75.9636 32.3603 78.158 31.7083L78.1602 31.7076C78.782 31.5288 79.7529 31.4456 80.7231 31.4456C81.795 31.4456 82.9077 31.5477 83.594 31.7582L83.5952 31.7586C83.7278 31.8002 83.8594 31.8436 83.9894 31.8897C90.3001 34.1163 93.2213 41.6266 90.6387 48.9449C89.9259 50.959 88.591 53.2664 87.1298 54.9898L87.129 54.991C86.8168 55.3545 86.536 55.7132 86.431 55.8546L86.4295 55.8538C86.4744 55.9653 86.6479 56.2295 86.9809 56.6196C87.9908 57.8124 88.8189 59.0872 89.4606 60.407C89.7403 59.9308 90.1236 59.5196 90.7124 59.2082L90.7831 59.1707L90.856 59.1379C91.7699 58.7255 92.7911 58.6889 93.7084 59.1171C94.7777 59.616 95.4697 60.698 95.8095 61.8792ZM107.947 143.739L107.942 143.737C107.909 143.724 107.899 143.718 107.903 143.718C107.907 143.718 107.926 143.725 107.949 143.739H107.947ZM143.819 87.4919C143.813 87.4847 143.808 87.4775 143.803 87.4707L143.82 87.4919H143.819ZM115.169 45.4824L115.168 45.4817C115.158 45.473 115.153 45.4685 115.153 45.4685C115.156 45.4685 115.163 45.4737 115.17 45.4824H115.169ZM116.243 42.7937C116.24 42.7937 116.241 42.7937 116.247 42.7937H116.25H116.251C116.248 42.7937 116.245 42.7937 116.245 42.7937H116.243ZM42.2936 63.9076C42.2929 63.9031 42.2929 63.8944 42.294 63.8838L42.2955 63.8846C42.2959 63.8955 42.2959 63.9035 42.2955 63.9076H42.2936ZM76.8412 61.3904C76.8389 61.3889 76.8363 61.3871 76.8321 61.3837H76.834C76.8385 61.3871 76.8412 61.3893 76.843 61.3904H76.8412ZM143.144 137.155L143.198 137.148C143.234 137.139 143.422 137.103 143.627 137.079L143.632 137.079C144.522 136.951 145.605 136.61 146.598 136.132C147.464 135.725 147.88 135.412 148.635 134.645C150.094 133.172 150.791 131.619 151.042 129.354C151.382 126.319 150.303 122.656 148.402 120.289L148.4 120.287C148.24 120.093 148.1 119.913 147.996 119.777C148.191 119.758 148.461 119.738 148.763 119.72C150.249 119.631 151.289 119.365 152.733 118.687C155.519 117.381 157.494 115.444 158.874 112.658C159.851 110.666 160.094 109.67 160.107 107.438C160.119 105.922 160.07 105.467 159.827 104.623C159.524 103.55 158.859 102.145 158.24 101.261L158.239 101.26C158.027 100.96 157.821 100.67 157.773 100.598C157.699 100.486 157.573 100.482 157.539 100.481C157.534 100.48 157.532 100.481 157.527 100.481C157.321 100.481 156.9 100.637 156.439 100.854C154.202 101.867 152.479 102.279 150.417 102.279C149.033 102.279 148.236 102.172 145.623 101.605L145.622 101.604C144.358 101.337 143.268 101.195 142.256 101.195C140.534 101.195 139.054 101.604 137.331 102.462C135.276 103.476 133.838 104.777 133.07 106.327L133.069 106.328C132.667 107.146 132.639 107.294 132.639 108.61C132.639 109.836 132.679 110.103 133.014 110.893C133.22 111.38 133.685 112.196 134.05 112.712L134.054 112.717V112.718C134.249 112.984 134.416 113.221 134.531 113.389L134.533 113.389C134.482 113.39 134.426 113.391 134.365 113.391C131.665 113.391 129.196 115.566 128.497 118.498C128.279 119.396 128.279 121.148 128.497 122.059C128.751 123.105 129.46 124.471 130.164 125.264C130.697 125.862 130.987 126.053 131.876 126.409L131.878 126.41C133.555 127.059 135.895 128.321 136.999 129.159C138.302 130.133 139.902 131.795 140.739 133.056L140.741 133.058C141.103 133.589 141.714 134.701 142.12 135.537L142.12 135.538C142.48 136.269 142.832 136.918 142.955 137.06C142.955 137.06 143.028 137.155 143.144 137.155ZM56.7242 113.357L56.7227 113.357L56.7231 113.356L56.7261 113.357H56.7242ZM48.5121 137.167C48.6421 137.167 48.723 137.036 48.723 137.029L48.7196 137.029C48.7993 136.882 49.0824 136.29 49.4018 135.609C50.3304 133.617 51.3286 132.169 52.755 130.73C54.5329 128.94 57.171 127.291 59.7097 126.4L59.7139 126.399C60.4282 126.138 60.729 125.931 61.305 125.304C62.6441 123.874 63.3539 121.802 63.2145 119.782C63.0878 117.984 62.5149 116.566 61.392 115.328C60.3397 114.173 58.6276 113.391 57.1056 113.391C57.0572 113.391 57.0111 113.39 56.9703 113.388L56.9722 113.389C57.0338 113.308 57.1105 113.213 57.1974 113.112C57.7511 112.468 58.4564 111.131 58.7236 110.228C59.1624 108.757 58.879 106.913 58.0433 105.614C57.1094 104.144 55.2374 102.773 53.2293 102.045C51.719 101.49 50.4075 101.213 48.9891 101.213C47.7921 101.213 46.5278 101.41 45.0134 101.792C43.4982 102.176 42.1855 102.365 40.9867 102.365C40.4307 102.365 39.9001 102.325 39.3834 102.245L39.3819 102.244C37.8251 102.013 36.9441 101.736 35.3431 100.99L34.1711 100.435C34.1412 100.421 34.1094 100.414 34.0777 100.414C34.015 100.414 33.9545 100.441 33.9118 100.49L33.5909 100.86L33.589 100.863C33.0349 101.519 32.2461 103.04 31.9067 104.032L31.9056 104.034C30.5688 108.097 31.7344 112.564 35.0063 115.949C37.2124 118.229 39.8676 119.53 42.7313 119.72H42.7328C43.0435 119.738 43.3183 119.761 43.514 119.783L43.5159 119.783C43.4396 119.884 43.3451 120.008 43.2404 120.142C41.9951 121.715 41.142 123.612 40.7036 125.728C40.3888 127.226 40.4247 129.633 40.7682 130.893L40.7686 130.894C41.6935 134.24 44.135 136.396 47.7316 137.028C48.133 137.1 48.469 137.163 48.472 137.164L48.5121 137.167Z" clip-rule="evenodd"/></g></svg>