<svg xmlns="http://www.w3.org/2000/svg" xmlns:vectornator="http://vectornator.io" xmlns:xlink="http://www.w3.org/1999/xlink" height="100%" stroke-miterlimit="10" style="fill-rule:nonzero;clip-rule:evenodd;stroke-linecap:round;stroke-linejoin:round" width="100%" version="1.1" viewBox="0 0 1300 1300" xml:space="preserve"><g id="Layer-2" vectornator:layerName="Layer 2"><path fill="#93bb90" fill-rule="nonzero" stroke="#93bb90" stroke-linecap="round" stroke-linejoin="round" stroke-width="10" d="M449.16 470.634C507.385 441.052 409.309 330.227 493.688 318.916C586.413 306.487 540.436 409.631 579.575 432.782C618.715 455.933 619.045 408.545 650.246 411.521C681.447 414.496 683.244 448.153 704.38 444.685C739.475 438.927 761.75 400.266 803.233 410.636C876.892 429.051 837.442 513.342 883.23 558.074C924.057 597.958 995.717 579.189 1009.34 649.701C1030.44 758.991 869.836 697.768 835.193 749.337C823.575 766.632 834.587 785.125 841.535 801.046C857.175 836.884 881.926 887.587 877.183 928.111C871.2 979.245 816.93 971.195 787.721 945.856C766.455 927.408 764.765 893.752 739.818 881.279C719.553 871.146 728.815 927.764 701.635 938.748C674.454 949.732 612.118 910.629 603.696 911.643C576.513 914.916 552.833 953.334 552.833 953.334C552.833 953.334 536.181 980.158 528.361 984.412C494.098 1003.05 455.903 999.435 424.572 962.556C388.624 920.243 447.036 860.031 427.822 814.024C388.034 718.747 267.232 736.646 236.39 621.741C229.574 596.347 223.434 571.904 235.717 544.717C248 517.53 267.048 517.778 285.522 512.993C330.037 501.462 423.534 485.1 438.115 476.995C439.778 476.071 449.136 470.863 449.136 470.863" opacity="1" vectornator:layerName="Curve 1"/><path fill="#93bb90" fill-rule="nonzero" stroke="#93bb90" stroke-linecap="round" stroke-linejoin="round" stroke-width="10" d="M1047.38 786.366C1032.84 767.233 907.085 751.972 943.476 800.492C949.075 807.958 958.838 811.345 965.399 817.905C981.347 833.854 991.673 860.154 1015.8 865.906C1047.88 873.558 1056.38 817.805 1053 797.499C1052.02 791.636 1049.51 789.167 1047.38 786.366Z" opacity="1" vectornator:layerName="Curve 2"/><path fill="#93bb90" fill-rule="nonzero" stroke="#93bb90" stroke-linecap="round" stroke-linejoin="round" stroke-width="10" d="M299.101 798.983C293.658 809.658 254.948 787.834 245.518 834.237C241.468 854.164 262.88 906.034 289.934 898.854C314.894 892.23 345.705 855.208 352.24 830.805C359.891 802.236 312.686 772.338 299.101 798.983Z" opacity="1" vectornator:layerName="Curve 4"/><path fill="#93bb90" fill-rule="nonzero" stroke="#93bb90" stroke-linecap="round" stroke-linejoin="round" stroke-width="10" d="M1015.02 390.479C1004.63 385.373 997.64 391.061 992.11 395.812C979.36 406.765 972.707 424.416 963.484 438.173C955.436 450.175 943.949 460.099 934.617 470.937C927.357 479.369 910.896 497.375 919.376 510.096C930.155 526.265 1009.9 490.373 1025.51 480.559C1053.14 463.183 1047.35 440.304 1033.66 416.239C1031.3 412.076 1025.41 395.586 1015.02 390.479Z" opacity="1" vectornator:layerName="Curve 3"/></g></svg>