<?xml version="1.0" encoding="UTF-8" standalone="no"?>
<!DOCTYPE svg PUBLIC "-//W3C//DTD SVG 1.1//EN" "http://www.w3.org/Graphics/SVG/1.1/DTD/svg11.dtd">
<!-- Created with Vectornator (http://vectornator.io/) -->
<svg height="100%" stroke-miterlimit="10" style="fill-rule:nonzero;clip-rule:evenodd;stroke-linecap:round;stroke-linejoin:round;" version="1.1" viewBox="0 0 176 163" width="100%" xml:space="preserve" xmlns="http://www.w3.org/2000/svg" xmlns:vectornator="http://vectornator.io" xmlns:xlink="http://www.w3.org/1999/xlink">
<defs/>
<path d="M0 0L176 0L176 163L0 163L0 0Z" fill="#3395ff" fill-rule="nonzero" opacity="1" stroke="none" vectornator:artboardBackground="true"/>
<g id="Untitled" vectornator:layerName="Untitled">
<path d="M156.462 147.555C156.093 149.058 155.195 150.397 153.914 151.356C152.632 152.315 151.043 152.837 149.406 152.836C72.1814 152.836 13.4667 92.9623 13.4667 20.1458L50.6431 12.1835L66.6959 48.1273L45.6102 64.3641C56.6773 86.4624 78.8296 105.313 102.302 115.732L117.258 98.5287C118.251 97.3847 119.61 96.5755 121.133 96.2222M156.462 147.555L163.699 118.031M156.462 147.555L153.908 146.909L161.141 117.401L163.699 118.031M156.462 147.555L153.908 146.909C153.695 147.776 153.165 148.594 152.353 149.202C151.538 149.812 150.5 150.161 149.407 150.161L149.406 150.161C73.4394 150.161 12.1231 92.2612 12.1231 21.1131L12.1231 21.1125C12.1229 20.2331 12.4378 19.3511 13.0607 18.6137C13.6873 17.8719 14.5928 17.319 15.6501 17.0891L12.9994 19.0676M163.699 118.031C164.072 116.467 163.855 114.828 163.084 113.399M163.699 118.031L161.145 117.385L161.142 117.393C161.357 116.487 161.235 115.535 160.776 114.684L163.084 113.399M163.084 113.399C162.313 111.968 161.036 110.836 159.474 110.197M163.084 113.399L160.776 114.684C160.313 113.826 159.521 113.101 158.496 112.68L158.503 112.683L159.474 110.197M159.474 110.197L125.701 96.5697M159.474 110.197L158.491 112.677L127.26 99.8196L125.701 96.5697M125.701 96.5697C124.258 95.9909 122.656 95.8451 121.134 96.1984M125.701 96.5697L126.807 97.9705L125.409 99.1983M120.495 98.7041L121.718 98.8301C122.727 98.5965 128.212 99.1853 129.157 99.5642M121.69 98.8051L121.636 98.8404C120.627 99.074 119.844 99.5925 119.232 100.298L119.23 100.3L104.274 117.503L103.005 118.963L101.249 118.183C77.2479 107.53 57.8856 89.3238 46.5273 66.644L45.5288 64.6502L47.2828 63.2985L65.556 49.2179L65.5624 49.2129C66.0162 48.8655 67.4456 48.1253 67.7116 47.6741C67.8963 47.3605 67.5997 47.768 67.6887 47.4281C67.9048 46.6027 67.2001 45.32 66.838 44.5241M66.838 44.5244L66.838 44.5241M66.838 44.5241L52.3717 12.7456M66.838 44.5241L52.3717 12.7456M52.3717 12.7456C52.3707 12.7433 52.3696 12.741 52.3685 12.7387C51.9651 11.8724 51.2308 11.1184 50.2455 10.6495C49.2562 10.1787 48.1067 10.042 47.0058 10.2768C47.0046 10.2771 47.0034 10.2773 47.0023 10.2776L15.6505 17.089L52.3717 12.7456Z" fill="none" opacity="1" stroke="#ffffff" stroke-linecap="butt" stroke-linejoin="miter" stroke-width="6" vectornator:layerName="path"/>
</g>
</svg>
