<svg xmlns="http://www.w3.org/2000/svg" width="208" height="208" fill="none" viewBox="0 0 208 208"><path stroke="#fff" stroke-width="7" d="M102.4 107.5V60M101.6 104H141.6M102.8 163.2V175.2M102.8 32.4V44.4M175.6 103.2H163.6M44.8 103.2H32.8M204 104C204 159.228 159.228 204 104 204C48.7715 204 4 159.228 4 104C4 48.7715 48.7715 4 104 4C159.228 4 204 48.7715 204 104ZM184 104C184 148.183 148.183 184 104 184C59.8172 184 24 148.183 24 104C24 59.8172 59.8172 24 104 24C148.183 24 184 59.8172 184 104Z"/></svg>