<svg xmlns="http://www.w3.org/2000/svg" xmlns:vectornator="http://vectornator.io" xmlns:xlink="http://www.w3.org/1999/xlink" height="100%" stroke-miterlimit="10" style="fill-rule:nonzero;clip-rule:evenodd;stroke-linecap:round;stroke-linejoin:round" width="100%" version="1.1" viewBox="0 0 244 50" xml:space="preserve"><g id="Untitled" vectornator:layerName="Untitled"><g opacity="1" vectornator:layerName="rect"><clipPath id="ClipPath" clip-rule="nonzero"><path d="M0 0L244 0L244 0L244 50L244 50L0 50L0 50L0 0L0 0Z"/></clipPath><g clip-path="url(#ClipPath)"><path fill="#f8cb2a" fill-rule="nonzero" stroke="none" d="M1 20C1 8.9543 9.9543 0 21 0L244 0L244 30C244 41.0457 235.046 50 224 50L1 50L1 20Z" opacity="1" vectornator:layerName="path"/><path fill="#0f4e0b" fill-rule="nonzero" stroke="none" d="M30.4039 33L30.4039 30.999L40.7999 18.303L41.1449 19.43L30.5649 19.43L30.5649 16.9L43.8359 16.9L43.8359 18.901L33.4399 31.597L33.0719 30.47L44.1349 30.47L44.1349 33L30.4039 33ZM47.1039 33L47.1039 16.9L50.0939 16.9L50.0939 30.47L58.5119 30.47L58.5119 33L47.1039 33ZM45.8619 27.595L44.6429 26.008L52.5779 20.005L53.7969 21.569L45.8619 27.595ZM68.1415 33.23C66.8842 33.23 65.7265 33.023 64.6685 32.609C63.6105 32.195 62.6905 31.62 61.9085 30.884C61.1265 30.1327 60.5209 29.2587 60.0915 28.262C59.6622 27.25 59.4475 26.146 59.4475 24.95C59.4475 23.754 59.6622 22.6577 60.0915 21.661C60.5209 20.649 61.1265 19.775 61.9085 19.039C62.6905 18.2877 63.6105 17.705 64.6685 17.291C65.7265 16.877 66.8765 16.67 68.1185 16.67C69.3759 16.67 70.5259 16.877 71.5685 17.291C72.6265 17.705 73.5465 18.2877 74.3285 19.039C75.1105 19.775 75.7162 20.649 76.1455 21.661C76.5749 22.6577 76.7895 23.754 76.7895 24.95C76.7895 26.146 76.5749 27.25 76.1455 28.262C75.7162 29.274 75.1105 30.148 74.3285 30.884C73.5465 31.62 72.6265 32.195 71.5685 32.609C70.5259 33.023 69.3835 33.23 68.1415 33.23ZM68.1185 30.608C68.9312 30.608 69.6825 30.47 70.3725 30.194C71.0625 29.918 71.6605 29.527 72.1665 29.021C72.6725 28.4997 73.0635 27.9017 73.3395 27.227C73.6309 26.537 73.7765 25.778 73.7765 24.95C73.7765 24.122 73.6309 23.3707 73.3395 22.696C73.0635 22.006 72.6725 21.408 72.1665 20.902C71.6605 20.3807 71.0625 19.982 70.3725 19.706C69.6825 19.43 68.9312 19.292 68.1185 19.292C67.3059 19.292 66.5545 19.43 65.8645 19.706C65.1899 19.982 64.5919 20.3807 64.0705 20.902C63.5645 21.408 63.1659 22.006 62.8745 22.696C62.5985 23.3707 62.4605 24.122 62.4605 24.95C62.4605 25.7627 62.5985 26.514 62.8745 27.204C63.1659 27.894 63.5645 28.4997 64.0705 29.021C64.5765 29.527 65.1745 29.918 65.8645 30.194C66.5545 30.47 67.3059 30.608 68.1185 30.608ZM83.0003 33L83.0003 19.43L77.6643 19.43L77.6643 16.9L91.3263 16.9L91.3263 19.43L85.9903 19.43L85.9903 33L83.0003 33ZM97.2791 33L97.2791 26.629L97.9461 28.469L90.9541 16.9L94.1511 16.9L99.7631 26.215L97.9691 26.215L103.627 16.9L106.571 16.9L99.5791 28.469L100.269 26.629L100.269 33L97.2791 33ZM119.877 33.23C118.619 33.23 117.416 33.0537 116.266 32.701C115.116 32.333 114.203 31.8653 113.529 31.298L114.564 28.975C115.208 29.481 116.005 29.9027 116.956 30.24C117.906 30.5773 118.88 30.746 119.877 30.746C120.72 30.746 121.402 30.654 121.924 30.47C122.445 30.286 122.828 30.0407 123.074 29.734C123.319 29.412 123.442 29.0517 123.442 28.653C123.442 28.1623 123.265 27.7713 122.913 27.48C122.56 27.1733 122.1 26.9357 121.533 26.767C120.981 26.583 120.36 26.4143 119.67 26.261C118.995 26.1077 118.313 25.9313 117.623 25.732C116.948 25.5173 116.327 25.249 115.76 24.927C115.208 24.5897 114.755 24.145 114.403 23.593C114.05 23.041 113.874 22.3357 113.874 21.477C113.874 20.603 114.104 19.8057 114.564 19.085C115.039 18.349 115.752 17.7663 116.703 17.337C117.669 16.8923 118.888 16.67 120.36 16.67C121.326 16.67 122.284 16.7927 123.235 17.038C124.185 17.2833 125.013 17.636 125.719 18.096L124.776 20.419C124.055 19.9897 123.311 19.6753 122.545 19.476C121.778 19.2613 121.042 19.154 120.337 19.154C119.509 19.154 118.834 19.2537 118.313 19.453C117.807 19.6523 117.431 19.913 117.186 20.235C116.956 20.557 116.841 20.925 116.841 21.339C116.841 21.8297 117.009 22.2283 117.347 22.535C117.699 22.8263 118.152 23.0563 118.704 23.225C119.271 23.3937 119.9 23.5623 120.59 23.731C121.28 23.8843 121.962 24.0607 122.637 24.26C123.327 24.4593 123.948 24.72 124.5 25.042C125.067 25.364 125.519 25.801 125.857 26.353C126.209 26.905 126.386 27.6027 126.386 28.446C126.386 29.3047 126.148 30.102 125.673 30.838C125.213 31.5587 124.5 32.1413 123.534 32.586C122.568 33.0153 121.349 33.23 119.877 33.23ZM118.244 15.589L121.349 12.438L124.73 12.438L120.728 15.589L118.244 15.589ZM129.35 33L129.35 16.9L135.974 16.9C137.4 16.9 138.619 17.13 139.631 17.59C140.659 18.05 141.448 18.7093 142 19.568C142.552 20.4267 142.828 21.4463 142.828 22.627C142.828 23.8077 142.552 24.8273 142 25.686C141.448 26.5293 140.659 27.181 139.631 27.641C138.619 28.0857 137.4 28.308 135.974 28.308L131.006 28.308L132.34 26.951L132.34 33L129.35 33ZM139.884 33L135.813 27.158L139.01 27.158L143.104 33L139.884 33ZM132.34 27.273L131.006 25.847L135.836 25.847C137.155 25.847 138.144 25.5633 138.803 24.996C139.478 24.4287 139.815 23.639 139.815 22.627C139.815 21.5997 139.478 20.81 138.803 20.258C138.144 19.706 137.155 19.43 135.836 19.43L131.006 19.43L132.34 17.958L132.34 27.273ZM153.718 33.23C152.46 33.23 151.303 33.023 150.245 32.609C149.187 32.195 148.267 31.62 147.485 30.884C146.703 30.1327 146.097 29.2587 145.668 28.262C145.238 27.25 145.024 26.146 145.024 24.95C145.024 23.754 145.238 22.6577 145.668 21.661C146.097 20.649 146.703 19.775 147.485 19.039C148.267 18.2877 149.187 17.705 150.245 17.291C151.303 16.877 152.453 16.67 153.695 16.67C154.952 16.67 156.102 16.877 157.145 17.291C158.203 17.705 159.123 18.2877 159.905 19.039C160.687 19.775 161.292 20.649 161.722 21.661C162.151 22.6577 162.366 23.754 162.366 24.95C162.366 26.146 162.151 27.25 161.722 28.262C161.292 29.274 160.687 30.148 159.905 30.884C159.123 31.62 158.203 32.195 157.145 32.609C156.102 33.023 154.96 33.23 153.718 33.23ZM153.695 30.608C154.507 30.608 155.259 30.47 155.949 30.194C156.639 29.918 157.237 29.527 157.743 29.021C158.249 28.4997 158.64 27.9017 158.916 27.227C159.207 26.537 159.353 25.778 159.353 24.95C159.353 24.122 159.207 23.3707 158.916 22.696C158.64 22.006 158.249 21.408 157.743 20.902C157.237 20.3807 156.639 19.982 155.949 19.706C155.259 19.43 154.507 19.292 153.695 19.292C152.882 19.292 152.131 19.43 151.441 19.706C150.766 19.982 150.168 20.3807 149.647 20.902C149.141 21.408 148.742 22.006 148.451 22.696C148.175 23.3707 148.037 24.122 148.037 24.95C148.037 25.7627 148.175 26.514 148.451 27.204C148.742 27.894 149.141 28.4997 149.647 29.021C150.153 29.527 150.751 29.918 151.441 30.194C152.131 30.47 152.882 30.608 153.695 30.608ZM165.535 33L165.535 16.9L172.573 16.9C174.321 16.9 175.854 17.2373 177.173 17.912C178.492 18.5867 179.519 19.522 180.255 20.718C180.991 21.914 181.359 23.3247 181.359 24.95C181.359 26.56 180.991 27.9707 180.255 29.182C179.519 30.378 178.492 31.3133 177.173 31.988C175.854 32.6627 174.321 33 172.573 33L165.535 33ZM168.525 30.47L172.435 30.47C173.646 30.47 174.689 30.24 175.563 29.78C176.452 29.32 177.135 28.676 177.61 27.848C178.101 27.02 178.346 26.054 178.346 24.95C178.346 23.8307 178.101 22.8647 177.61 22.052C177.135 21.224 176.452 20.58 175.563 20.12C174.689 19.66 173.646 19.43 172.435 19.43L168.525 19.43L168.525 30.47ZM187.297 23.593L195.301 23.593L195.301 26.054L187.297 26.054L187.297 23.593ZM187.527 30.493L196.612 30.493L196.612 33L184.537 33L184.537 16.9L196.29 16.9L196.29 19.407L187.527 19.407L187.527 30.493ZM202.613 29.205L202.452 25.663L210.893 16.9L214.251 16.9L207.236 24.352L205.58 26.169L202.613 29.205ZM199.945 33L199.945 16.9L202.935 16.9L202.935 33L199.945 33ZM211.169 33L205.005 25.663L206.983 23.478L214.665 33L211.169 33Z" opacity="1" vectornator:layerName="path"/></g></g></g></svg>